<svg xmlns="http://www.w3.org/2000/svg" xmlns:xlink="http://www.w3.org/1999/xlink" width="500" zoomAndPan="magnify" viewBox="0 0 375 374.999991" height="500" preserveAspectRatio="xMidYMid meet" version="1.0"><defs><g/></defs><path fill="#144a1b" d="M 252.167969 83.765625 C 251.621094 83.765625 251.351562 84.035156 251.351562 84.582031 C 250.695312 85.960938 249.878906 87.320312 248.902344 88.660156 C 247.363281 87.6875 246.957031 86.328125 247.679688 84.582031 C 252.710938 76.148438 257.742188 67.714844 262.773438 59.285156 C 263.863281 58.195312 264.949219 58.195312 266.039062 59.285156 C 261.367188 67.472656 256.746094 75.632812 252.167969 83.765625 Z M 252.167969 83.765625 " fill-opacity="1" fill-rule="evenodd"/><path fill="#185221" d="M 251.351562 51.941406 C 252.167969 51.941406 252.980469 51.941406 253.796875 51.941406 C 243.296875 73.210938 232.144531 94.15625 220.34375 114.773438 C 219.8125 115.019531 219.265625 115.292969 218.710938 115.589844 C 217.789062 114.304688 217.652344 112.945312 218.300781 111.507812 C 224.039062 102.207031 229.34375 92.6875 234.214844 82.949219 C 239.914062 72.640625 245.625 62.304688 251.351562 51.941406 Z M 251.351562 51.941406 " fill-opacity="1" fill-rule="evenodd"/><path fill="#528623" d="M 225.238281 77.238281 C 225.402344 79.269531 224.996094 81.171875 224.015625 82.949219 C 222.511719 81.5625 221.015625 80.199219 219.527344 78.867188 C 218.03125 77.875 217.214844 78.417969 217.078125 80.5 C 213.910156 80.707031 212.277344 82.335938 212.183594 85.398438 C 211.910156 85.398438 211.636719 85.398438 211.367188 85.398438 C 211.230469 82.664062 211.367188 79.945312 211.773438 77.238281 C 213.773438 73.878906 216.082031 70.75 218.710938 67.851562 C 221.714844 70.109375 223.890625 73.238281 225.238281 77.238281 Z M 225.238281 77.238281 " fill-opacity="1" fill-rule="evenodd"/><path fill="#174e1e" d="M 266.039062 82.949219 C 265.542969 81.332031 264.726562 81.058594 263.589844 82.132812 C 266.78125 76.34375 270.183594 70.628906 273.789062 64.996094 C 274.613281 64.3125 275.566406 64.042969 276.644531 64.179688 C 273.464844 70.628906 269.929688 76.882812 266.039062 82.949219 Z M 266.039062 82.949219 " fill-opacity="1" fill-rule="evenodd"/><path fill="#1a5720" d="M 270.933594 86.210938 C 270.335938 85.226562 270.0625 84.140625 270.117188 82.949219 C 272.277344 78.082031 274.863281 73.460938 277.871094 69.078125 C 278.949219 66.988281 280.445312 66.445312 282.359375 67.445312 C 278.5 73.734375 274.691406 79.988281 270.933594 86.210938 Z M 270.933594 86.210938 " fill-opacity="1" fill-rule="evenodd"/><path fill="#174f1d" d="M 255.429688 122.117188 C 260.195312 114.21875 264.546875 106.058594 268.484375 97.636719 C 273.222656 89.253906 277.984375 80.824219 282.765625 72.339844 C 283.847656 70.253906 285.34375 69.710938 287.253906 70.707031 C 275.960938 90.578125 265.078125 110.703125 254.613281 131.09375 C 253.941406 131.816406 253.125 132.085938 252.167969 131.910156 C 252.785156 128.496094 253.871094 125.230469 255.429688 122.117188 Z M 255.429688 122.117188 " fill-opacity="1" fill-rule="evenodd"/><path fill="#14461d" d="M 260.324219 82.132812 C 259.410156 83.894531 257.914062 84.984375 255.839844 85.398438 C 254.996094 85.121094 254.589844 84.578125 254.613281 83.765625 C 259.773438 76.171875 264.941406 68.554688 270.117188 60.917969 C 270.777344 61.167969 271.320312 61.574219 271.75 62.140625 C 267.613281 68.648438 263.804688 75.3125 260.324219 82.132812 Z M 260.324219 82.132812 " fill-opacity="1" fill-rule="evenodd"/><path fill="#9cb78d" d="M 219.527344 78.867188 C 219.527344 79.140625 219.527344 79.414062 219.527344 79.683594 C 218.191406 83.285156 217.375 87.09375 217.078125 91.109375 C 217.078125 87.574219 217.078125 84.035156 217.078125 80.5 C 217.214844 78.417969 218.03125 77.875 219.527344 78.867188 Z M 219.527344 78.867188 " fill-opacity="1" fill-rule="evenodd"/><path fill="#3d7421" d="M 137.109375 81.316406 C 137.324219 86.132812 135.011719 88.308594 130.175781 87.84375 C 125.792969 87.949219 123.753906 85.773438 124.054688 81.316406 C 124.78125 80.695312 125.324219 79.878906 125.6875 78.867188 C 127.183594 78.597656 128.679688 78.324219 130.175781 78.054688 C 133.410156 77.4375 135.71875 78.527344 137.109375 81.316406 Z M 137.109375 81.316406 " fill-opacity="1" fill-rule="evenodd"/><path fill="#42732c" d="M 225.238281 77.238281 C 226.03125 79.234375 226.304688 81.410156 226.054688 83.765625 C 225.777344 86.226562 224.824219 88.402344 223.199219 90.292969 C 222.375 90.976562 221.421875 91.246094 220.34375 91.109375 C 220.460938 87.261719 220.191406 83.453125 219.527344 79.683594 C 219.527344 79.414062 219.527344 79.140625 219.527344 78.867188 C 221.015625 80.199219 222.511719 81.5625 224.015625 82.949219 C 224.996094 81.171875 225.402344 79.269531 225.238281 77.238281 Z M 225.238281 77.238281 " fill-opacity="1" fill-rule="evenodd"/><path fill="#0b2b12" d="M 266.039062 82.949219 C 265.09375 85.375 263.734375 87.550781 261.957031 89.476562 C 260.933594 87.660156 260.933594 85.757812 261.957031 83.765625 C 262.503906 83.21875 263.046875 82.675781 263.589844 82.132812 C 264.726562 81.058594 265.542969 81.332031 266.039062 82.949219 Z M 266.039062 82.949219 " fill-opacity="1" fill-rule="evenodd"/><path fill="#386b15" d="M 184.4375 83.765625 C 185.246094 85.867188 186.058594 88.042969 186.886719 90.292969 C 185.4375 92.503906 183.535156 94.136719 181.175781 95.1875 C 178.761719 97.277344 176.71875 99.726562 175.054688 102.53125 C 174.289062 100.910156 173.609375 99.277344 173.015625 97.636719 C 175.164062 93.335938 177.339844 88.980469 179.542969 84.582031 C 181.089844 83.792969 182.722656 83.519531 184.4375 83.765625 Z M 184.4375 83.765625 " fill-opacity="1" fill-rule="evenodd"/><path fill="#2f6c17" d="M 217.078125 80.5 C 217.078125 84.035156 217.078125 87.574219 217.078125 91.109375 C 214.117188 90.359375 212.484375 88.457031 212.183594 85.398438 C 212.277344 82.335938 213.910156 80.707031 217.078125 80.5 Z M 217.078125 80.5 " fill-opacity="1" fill-rule="evenodd"/><path fill="#154321" d="M 270.117188 82.949219 C 270.0625 84.140625 270.335938 85.226562 270.933594 86.210938 C 269.523438 89.308594 267.890625 92.300781 266.039062 95.1875 C 265.050781 95.789062 263.964844 96.058594 262.773438 96.003906 C 262.773438 95.1875 262.773438 94.371094 262.773438 93.558594 C 265.421875 90.164062 267.871094 86.628906 270.117188 82.949219 Z M 270.117188 82.949219 " fill-opacity="1" fill-rule="evenodd"/><path fill="#7ea75f" d="M 152.613281 80.5 C 151.335938 85.296875 150.792969 90.191406 150.980469 95.1875 C 149.636719 90.105469 150.183594 85.210938 152.613281 80.5 Z M 152.613281 80.5 " fill-opacity="1" fill-rule="evenodd"/><path fill="#a46219" d="M 257.878906 96.820312 C 256.875 99.039062 255.105469 100.398438 252.574219 100.902344 C 251.910156 102.480469 251.503906 104.113281 251.351562 105.796875 C 250.402344 104.433594 250.402344 102.9375 251.351562 101.308594 C 251.074219 100.46875 250.53125 100.058594 249.71875 100.085938 C 248.984375 97.03125 250.070312 95.398438 252.980469 95.1875 C 252.871094 93.726562 253.144531 92.367188 253.796875 91.109375 C 254.539062 89.914062 255.625 89.097656 257.0625 88.660156 C 257.867188 91.328125 258.140625 94.046875 257.878906 96.820312 Z M 257.878906 96.820312 " fill-opacity="1" fill-rule="evenodd"/><path fill="#588e21" d="M 207.285156 104.980469 C 207.285156 105.253906 207.285156 105.523438 207.285156 105.796875 C 204.71875 105.925781 202.679688 107.011719 201.167969 109.0625 C 199.441406 108.15625 197.945312 106.933594 196.679688 105.390625 C 195.914062 104.824219 195.371094 104.960938 195.046875 105.796875 C 194.1875 105.675781 193.371094 105.8125 192.597656 106.203125 C 189.90625 109.714844 186.914062 112.976562 183.621094 115.996094 C 182.226562 117.425781 180.59375 117.96875 178.726562 117.628906 C 176.886719 109.824219 178.246094 102.617188 182.804688 96.003906 C 182.433594 95.355469 181.890625 95.082031 181.175781 95.1875 C 183.535156 94.136719 185.4375 92.503906 186.886719 90.292969 C 188.046875 90.121094 189.132812 89.714844 190.148438 89.070312 C 192.78125 86.027344 195.773438 83.441406 199.125 81.316406 C 202.210938 88.933594 204.113281 96.824219 204.839844 104.980469 C 205.652344 104.980469 206.46875 104.980469 207.285156 104.980469 Z M 207.285156 104.980469 " fill-opacity="1" fill-rule="evenodd"/><path fill="#174021" d="M 239.925781 92.742188 C 236.390625 98.179688 232.855469 103.621094 229.316406 109.0625 C 228.507812 109.199219 227.964844 108.929688 227.6875 108.246094 C 237.128906 90.71875 246.785156 73.3125 256.652344 56.019531 C 258.960938 55.0625 259.777344 55.878906 259.101562 58.46875 C 252.484375 69.804688 246.09375 81.230469 239.925781 92.742188 Z M 239.925781 92.742188 " fill-opacity="1" fill-rule="evenodd"/><path fill="#865e1d" d="M 247.269531 91.109375 C 247.441406 92.644531 248.257812 93.734375 249.71875 94.371094 C 250.75 92.820312 252.113281 91.730469 253.796875 91.109375 C 253.144531 92.367188 252.871094 93.726562 252.980469 95.1875 C 250.070312 95.398438 248.984375 97.03125 249.71875 100.085938 C 249.507812 102.320312 248.691406 104.226562 247.269531 105.796875 C 245.039062 103.667969 243.40625 101.222656 242.375 98.453125 C 242.210938 95.644531 242.621094 92.925781 243.597656 90.292969 C 244.996094 89.410156 246.21875 89.683594 247.269531 91.109375 Z M 247.269531 91.109375 " fill-opacity="1" fill-rule="evenodd"/><path fill="#578e22" d="M 184.4375 83.765625 C 182.722656 83.519531 181.089844 83.792969 179.542969 84.582031 C 177.339844 88.980469 175.164062 93.335938 173.015625 97.636719 C 171.421875 92.277344 168.976562 87.382812 165.671875 82.949219 C 165.398438 83.628906 165.125 84.308594 164.855469 84.988281 C 166.925781 90.957031 168.285156 97.078125 168.933594 103.347656 C 164.925781 101.75 160.847656 100.390625 156.695312 99.269531 C 156.695312 100.085938 156.695312 100.902344 156.695312 101.71875 C 162.710938 103.71875 167.742188 107.253906 171.789062 112.324219 C 172.671875 114.417969 173.078125 116.589844 173.015625 118.851562 C 170.230469 118.886719 167.511719 118.480469 164.855469 117.628906 C 160.851562 115.75 156.773438 114.253906 152.613281 113.140625 C 153.1875 115.078125 154.277344 116.710938 155.878906 118.035156 C 156.570312 120.632812 157.929688 122.808594 159.957031 124.566406 C 158.871094 124.566406 158.328125 125.109375 158.328125 126.195312 C 155.320312 126.332031 152.332031 126.195312 149.351562 125.789062 C 145.835938 124.707031 142.296875 123.753906 138.742188 122.933594 C 138.46875 122.386719 138.199219 121.84375 137.925781 121.300781 C 138.796875 120.539062 139.886719 120.265625 141.191406 120.484375 C 141.429688 118.660156 141.160156 117.027344 140.375 115.589844 C 140.941406 109.039062 139.851562 102.785156 137.109375 96.820312 C 137.65625 96.550781 138.199219 96.277344 138.742188 96.003906 C 142.765625 96.992188 146.847656 97.539062 150.980469 97.636719 C 150.980469 96.820312 150.980469 96.003906 150.980469 95.1875 C 150.792969 90.191406 151.335938 85.296875 152.613281 80.5 C 154.992188 75.476562 157.980469 70.851562 161.589844 66.628906 C 166.757812 69.484375 171.925781 72.339844 177.09375 75.195312 C 180.019531 77.707031 182.46875 80.566406 184.4375 83.765625 Z M 184.4375 83.765625 " fill-opacity="1" fill-rule="evenodd"/><path fill="#184b22" d="M 285.621094 87.027344 C 276.828125 101.621094 268.667969 116.582031 261.140625 131.910156 C 260.324219 131.910156 259.511719 131.910156 258.695312 131.910156 C 268.023438 112.160156 278.226562 92.847656 289.292969 73.972656 C 290.609375 71.867188 291.832031 71.867188 292.964844 73.972656 C 290.085938 78.105469 287.636719 82.457031 285.621094 87.027344 Z M 285.621094 87.027344 " fill-opacity="1" fill-rule="evenodd"/><path fill="#0d2c24" d="M 115.894531 93.558594 C 117.601562 94 119.234375 94.679688 120.789062 95.597656 C 124.828125 105.457031 127.820312 115.65625 129.765625 126.195312 C 129.261719 126.289062 128.855469 126.558594 128.542969 127.011719 C 128.136719 128.621094 128.003906 130.253906 128.132812 131.910156 C 129.214844 131.769531 130.164062 132.042969 130.988281 132.726562 C 132.464844 138.886719 133.414062 145.144531 133.847656 151.492188 C 135.4375 152.023438 136.253906 151.207031 136.292969 149.042969 C 137.351562 152.5 138.441406 156.035156 139.558594 159.652344 C 139.558594 159.925781 139.558594 160.195312 139.558594 160.46875 C 138.597656 159.265625 137.785156 157.90625 137.109375 156.390625 C 135.1875 156.847656 133.285156 157.390625 131.398438 158.019531 C 132.835938 159.703125 133.109375 161.472656 132.214844 163.324219 C 133.847656 165.03125 134.800781 167.070312 135.070312 169.445312 C 135.34375 168.628906 135.613281 167.8125 135.886719 166.996094 C 136.5625 168.894531 137.242188 170.800781 137.925781 172.707031 C 138.246094 176.441406 138.246094 180.25 137.925781 184.132812 C 131.480469 163.570312 125.089844 142.898438 118.75 122.117188 C 117.652344 116.902344 116.425781 111.738281 115.078125 106.613281 C 115.078125 105.523438 115.078125 104.4375 115.078125 103.347656 C 105.285156 103.347656 95.496094 103.347656 85.703125 103.347656 C 84.042969 102.207031 83.226562 100.574219 83.253906 98.453125 C 83.226562 96.167969 84.3125 94.671875 86.519531 93.964844 C 96.304688 93.558594 106.097656 93.421875 115.894531 93.558594 Z M 115.894531 93.558594 " fill-opacity="1" fill-rule="evenodd"/><path fill="#71390b" d="M 257.878906 96.820312 C 257.878906 97.636719 257.878906 98.453125 257.878906 99.269531 C 260.085938 99.207031 262.261719 98.9375 264.40625 98.453125 C 264.289062 100.996094 263.203125 103.035156 261.140625 104.574219 C 257.988281 105.675781 254.726562 106.085938 251.351562 105.796875 C 251.503906 104.113281 251.910156 102.480469 252.574219 100.902344 C 255.105469 100.398438 256.875 99.039062 257.878906 96.820312 Z M 257.878906 96.820312 " fill-opacity="1" fill-rule="evenodd"/><path fill="#5d7873" d="M 85.703125 103.347656 C 95.496094 103.347656 105.285156 103.347656 115.078125 103.347656 C 115.078125 104.4375 115.078125 105.523438 115.078125 106.613281 C 114.339844 106.035156 114.070312 105.21875 114.261719 104.164062 C 106.375 104.164062 98.488281 104.164062 90.597656 104.164062 C 88.773438 104.40625 87.140625 104.132812 85.703125 103.347656 Z M 85.703125 103.347656 " fill-opacity="1" fill-rule="evenodd"/><path fill="#86ad82" d="M 213 105.796875 C 213.246094 109.296875 212.699219 112.5625 211.367188 115.589844 C 211.398438 112.132812 211.941406 108.871094 213 105.796875 Z M 213 105.796875 " fill-opacity="1" fill-rule="evenodd"/><path fill="#8a5e13" d="M 244.007812 111.507812 C 242.777344 112.878906 241.960938 114.511719 241.558594 116.40625 C 240.933594 117.351562 240.117188 118.167969 239.109375 118.851562 C 237.300781 117.691406 236.078125 116.058594 235.4375 113.957031 C 234.691406 109.445312 235.238281 105.09375 237.070312 100.902344 C 237.414062 99.710938 238.09375 99.304688 239.109375 99.675781 C 242.527344 102.933594 244.160156 106.878906 244.007812 111.507812 Z M 244.007812 111.507812 " fill-opacity="1" fill-rule="evenodd"/><path fill="#66480e" d="M 254.613281 116.40625 C 251.167969 117.957031 247.632812 118.230469 244.007812 117.222656 C 244.613281 116.210938 244.886719 115.125 244.820312 113.957031 C 246.011719 112.355469 247.375 110.859375 248.902344 109.46875 C 252.46875 108.792969 256.003906 108.929688 259.511719 109.875 C 258.171875 112.296875 256.539062 114.476562 254.613281 116.40625 Z M 254.613281 116.40625 " fill-opacity="1" fill-rule="evenodd"/><path fill="#4c8217" d="M 207.285156 105.796875 C 208.253906 115.828125 204.449219 123.445312 195.863281 128.644531 C 194.308594 125.425781 193.492188 125.699219 193.414062 129.460938 C 192.597656 129.460938 191.78125 129.460938 190.964844 129.460938 C 191.695312 127.410156 192.511719 125.371094 193.414062 123.339844 C 193.140625 122.5 192.597656 122.09375 191.78125 122.117188 C 193.125 118.171875 193.941406 114.09375 194.230469 109.875 C 194.667969 108.558594 194.941406 107.195312 195.046875 105.796875 C 195.371094 104.960938 195.914062 104.824219 196.679688 105.390625 C 197.945312 106.933594 199.441406 108.15625 201.167969 109.0625 C 202.679688 107.011719 204.71875 105.925781 207.285156 105.796875 Z M 207.285156 105.796875 " fill-opacity="1" fill-rule="evenodd"/><path fill="#488421" d="M 290.519531 118.851562 C 290.695312 117.894531 290.425781 117.078125 289.703125 116.40625 C 288.171875 118.382812 286.269531 119.746094 283.988281 120.484375 C 282.464844 120.777344 281.238281 121.59375 280.316406 122.933594 C 278.738281 125.292969 276.96875 127.464844 275.015625 129.460938 C 273.769531 128.621094 273.226562 127.398438 273.382812 125.789062 C 274.34375 119.253906 277.878906 114.765625 283.988281 112.324219 C 285.980469 112.117188 287.882812 111.570312 289.703125 110.691406 C 290.179688 110.863281 290.589844 111.136719 290.925781 111.507812 C 291.582031 114.117188 291.445312 116.566406 290.519531 118.851562 Z M 290.519531 118.851562 " fill-opacity="1" fill-rule="evenodd"/><path fill="#d0beab" d="M 244.007812 111.507812 C 243.8125 112.5625 244.085938 113.378906 244.820312 113.957031 C 244.886719 115.125 244.613281 116.210938 244.007812 117.222656 C 247.632812 118.230469 251.167969 117.957031 254.613281 116.40625 C 253.921875 117.601562 252.835938 118.28125 251.351562 118.445312 C 248.644531 118.851562 245.921875 118.988281 243.191406 118.851562 C 243.316406 117.734375 243.183594 116.644531 242.78125 115.589844 C 242.46875 116.042969 242.0625 116.3125 241.558594 116.40625 C 241.960938 114.511719 242.777344 112.878906 244.007812 111.507812 Z M 244.007812 111.507812 " fill-opacity="1" fill-rule="evenodd"/><path fill="#97b87d" d="M 140.375 115.589844 C 141.160156 117.027344 141.429688 118.660156 141.191406 120.484375 C 139.886719 120.265625 138.796875 120.539062 137.925781 121.300781 C 137.484375 121.25 137.210938 120.980469 137.109375 120.484375 C 138.082031 119.726562 139.167969 119.453125 140.375 119.667969 C 140.375 118.308594 140.375 116.949219 140.375 115.589844 Z M 140.375 115.589844 " fill-opacity="1" fill-rule="evenodd"/><path fill="#2b6115" d="M 194.230469 109.875 C 193.941406 114.09375 193.125 118.171875 191.78125 122.117188 C 189.101562 125.339844 186.109375 128.332031 182.804688 131.09375 C 182.007812 128.984375 181.734375 126.804688 181.988281 124.566406 C 186.660156 120.164062 190.742188 115.269531 194.230469 109.875 Z M 194.230469 109.875 " fill-opacity="1" fill-rule="evenodd"/><path fill="#735023" d="M 233.398438 129.460938 C 233.480469 125.707031 232.664062 122.167969 230.949219 118.851562 C 229.949219 119.558594 228.859375 119.558594 227.6875 118.851562 C 228.914062 112.597656 230.953125 112.324219 233.804688 118.035156 C 236.644531 122.101562 236.507812 125.910156 233.398438 129.460938 Z M 233.398438 129.460938 " fill-opacity="1" fill-rule="evenodd"/><path fill="#235b17" d="M 213 105.796875 C 211.941406 108.871094 211.398438 112.132812 211.367188 115.589844 C 211.03125 121.859375 208.855469 127.300781 204.839844 131.910156 C 199.664062 132.042969 194.496094 131.910156 189.335938 131.5 C 189.796875 130.6875 190.339844 130.007812 190.964844 129.460938 C 191.78125 129.460938 192.597656 129.460938 193.414062 129.460938 C 193.492188 125.699219 194.308594 125.425781 195.863281 128.644531 C 204.449219 123.445312 208.253906 115.828125 207.285156 105.796875 C 207.285156 105.523438 207.285156 105.253906 207.285156 104.980469 C 208.894531 104.175781 210.527344 103.359375 212.183594 102.53125 C 212.941406 103.503906 213.210938 104.589844 213 105.796875 Z M 213 105.796875 " fill-opacity="1" fill-rule="evenodd"/><path fill="#795516" d="M 248.902344 121.300781 C 250.289062 121.171875 251.648438 121.304688 252.980469 121.707031 C 251.648438 124.523438 250.015625 127.105469 248.085938 129.460938 C 244.320312 131.742188 240.238281 132.425781 235.847656 131.5 C 237.023438 128.226562 238.65625 125.234375 240.742188 122.523438 C 243.34375 121.449219 246.0625 121.042969 248.902344 121.300781 Z M 248.902344 121.300781 " fill-opacity="1" fill-rule="evenodd"/><path fill="#669b41" d="M 83.253906 121.300781 C 87.535156 121.414062 88.351562 123.183594 85.703125 126.605469 C 84.929688 127 84.113281 127.132812 83.253906 127.011719 C 81.078125 125.109375 81.078125 123.203125 83.253906 121.300781 Z M 83.253906 121.300781 " fill-opacity="1" fill-rule="evenodd"/><path fill="#428323" d="M 300.308594 122.933594 C 301.28125 123.636719 302.230469 124.453125 303.167969 125.378906 C 303.285156 130.355469 301.246094 131.445312 297.046875 128.644531 C 295.398438 125.175781 296.484375 123.273438 300.308594 122.933594 Z M 300.308594 122.933594 " fill-opacity="1" fill-rule="evenodd"/><path fill="#2b6a16" d="M 155.878906 118.035156 C 161.972656 120.160156 167.957031 122.609375 173.832031 125.378906 C 175.242188 127.300781 175.785156 129.476562 175.460938 131.910156 C 165.121094 132.046875 154.785156 131.910156 144.453125 131.5 C 143.113281 130.578125 142.300781 129.355469 142.007812 127.828125 C 142.820312 127.828125 143.636719 127.828125 144.453125 127.828125 C 144.316406 128.90625 144.585938 129.859375 145.269531 130.683594 C 151.417969 131.507812 157.402344 131.101562 163.222656 129.460938 C 164.863281 129.878906 166.496094 130.015625 168.117188 129.867188 C 165.515625 127.890625 162.792969 126.121094 159.957031 124.566406 C 157.929688 122.808594 156.570312 120.632812 155.878906 118.035156 Z M 155.878906 118.035156 " fill-opacity="1" fill-rule="evenodd"/><path fill="#216025" d="M 227.6875 108.246094 C 227.964844 108.929688 228.507812 109.199219 229.316406 109.0625 C 226.863281 113.296875 224.957031 117.78125 223.605469 122.523438 C 224.113281 125.582031 225.199219 128.4375 226.871094 131.09375 C 223.925781 131.898438 220.933594 132.171875 217.894531 131.910156 C 217.226562 126.800781 218.3125 122.175781 221.15625 118.035156 C 223.335938 114.773438 225.511719 111.507812 227.6875 108.246094 Z M 227.6875 108.246094 " fill-opacity="1" fill-rule="evenodd"/><path fill="#2f661a" d="M 290.519531 118.851562 C 290.503906 120.539062 290.234375 122.167969 289.703125 123.75 C 287.59375 128.472656 284.058594 130.375 279.09375 129.460938 C 280.703125 126.898438 282.472656 124.449219 284.398438 122.117188 C 284.960938 121.351562 284.828125 120.808594 283.988281 120.484375 C 286.269531 119.746094 288.171875 118.382812 289.703125 116.40625 C 290.425781 117.078125 290.695312 117.894531 290.519531 118.851562 Z M 290.519531 118.851562 " fill-opacity="1" fill-rule="evenodd"/><path fill="#8a5518" d="M 227.6875 118.851562 C 228.859375 119.558594 229.949219 119.558594 230.949219 118.851562 C 232.664062 122.167969 233.480469 125.707031 233.398438 129.460938 C 233.144531 130.257812 232.601562 130.804688 231.765625 131.09375 C 228.027344 127.9375 226.667969 123.855469 227.6875 118.851562 Z M 227.6875 118.851562 " fill-opacity="1" fill-rule="evenodd"/><path fill="#295e16" d="M 138.742188 122.933594 C 142.296875 123.753906 145.835938 124.707031 149.351562 125.789062 C 152.332031 126.195312 155.320312 126.332031 158.328125 126.195312 C 159.957031 127.285156 161.589844 128.375 163.222656 129.460938 C 157.402344 131.101562 151.417969 131.507812 145.269531 130.683594 C 144.585938 129.859375 144.316406 128.90625 144.453125 127.828125 C 143.636719 127.828125 142.820312 127.828125 142.007812 127.828125 C 140.523438 126.507812 139.4375 124.875 138.742188 122.933594 Z M 138.742188 122.933594 " fill-opacity="1" fill-rule="evenodd"/><path fill="#c7d2cd" d="M 133.03125 136.804688 C 174.917969 136.667969 216.808594 136.804688 258.695312 137.210938 C 260.660156 137.257812 261.75 138.210938 261.957031 140.070312 C 260.832031 139.007812 259.472656 138.328125 257.878906 138.027344 C 216.125 137.890625 174.507812 137.484375 133.03125 136.804688 Z M 133.03125 136.804688 " fill-opacity="1" fill-rule="evenodd"/><path fill="#0e3227" d="M 129.765625 126.195312 C 131.15625 129.554688 132.246094 133.09375 133.03125 136.804688 C 174.507812 137.484375 216.125 137.890625 257.878906 138.027344 C 259.472656 138.328125 260.832031 139.007812 261.957031 140.070312 C 263.265625 140.898438 264.082031 142.125 264.40625 143.742188 C 259.214844 157.957031 254.183594 172.238281 249.308594 186.582031 C 248.484375 188.785156 247.261719 190.6875 245.636719 192.292969 C 240.851562 193.644531 235.957031 194.1875 230.949219 193.925781 C 201.8125 194.1875 172.707031 193.914062 143.636719 193.109375 C 140.097656 191.195312 138.195312 188.203125 137.925781 184.132812 C 138.246094 180.25 138.246094 176.441406 137.925781 172.707031 C 137.242188 170.800781 136.5625 168.894531 135.886719 166.996094 C 135.613281 167.8125 135.34375 168.628906 135.070312 169.445312 C 134.800781 167.070312 133.847656 165.03125 132.214844 163.324219 C 133.109375 161.472656 132.835938 159.703125 131.398438 158.019531 C 133.285156 157.390625 135.1875 156.847656 137.109375 156.390625 C 137.785156 157.90625 138.597656 159.265625 139.558594 160.46875 C 143.910156 160.46875 148.261719 160.46875 152.613281 160.46875 C 152.613281 155.84375 152.613281 151.222656 152.613281 146.597656 C 147.054688 145.789062 141.34375 145.515625 135.476562 145.78125 C 135.285156 146.835938 135.554688 147.648438 136.292969 148.230469 C 136.292969 148.5 136.292969 148.773438 136.292969 149.042969 C 136.253906 151.207031 135.4375 152.023438 133.847656 151.492188 C 133.414062 145.144531 132.464844 138.886719 130.988281 132.726562 C 130.164062 132.042969 129.214844 131.769531 128.132812 131.910156 C 128.003906 130.253906 128.136719 128.621094 128.542969 127.011719 C 128.855469 126.558594 129.261719 126.289062 129.765625 126.195312 Z M 129.765625 126.195312 " fill-opacity="1" fill-rule="evenodd"/><path fill="#548c23" d="M 289.703125 135.988281 C 291.339844 139.25 291.609375 142.511719 290.519531 145.78125 C 290.550781 144.757812 290.140625 143.941406 289.292969 143.332031 C 284.839844 146.265625 282.527344 150.347656 282.359375 155.574219 C 281.542969 153.941406 280.726562 152.308594 279.910156 150.675781 C 277.128906 143.09375 279.304688 137.382812 286.4375 133.539062 C 287.542969 134.375 288.628906 135.191406 289.703125 135.988281 Z M 289.703125 135.988281 " fill-opacity="1" fill-rule="evenodd"/><path fill="#5e9228" d="M 84.070312 132.726562 C 89.058594 136.851562 94.769531 139.707031 101.207031 141.292969 C 104.941406 143.496094 108.070312 146.355469 110.589844 149.859375 C 111.984375 151.828125 112.664062 154.003906 112.628906 156.390625 C 109.945312 156.078125 108.039062 157.167969 106.917969 159.652344 C 105.632812 158.871094 104.273438 158.328125 102.839844 158.019531 C 99.863281 154.773438 96.871094 151.507812 93.863281 148.230469 C 93.589844 148.5 93.316406 148.773438 93.046875 149.042969 C 95.851562 154.929688 98.84375 160.640625 102.023438 166.179688 C 101.359375 167.398438 100.273438 167.945312 98.757812 167.8125 C 95.597656 167.050781 92.605469 165.824219 89.78125 164.140625 C 88.449219 163.738281 87.089844 163.601562 85.703125 163.734375 C 84.804688 162.28125 84.125 160.652344 83.664062 158.835938 C 83.253906 153.132812 83.117188 147.417969 83.253906 141.699219 C 83.292969 139.355469 83.023438 137.042969 82.4375 134.765625 C 82.589844 133.640625 83.132812 132.960938 84.070312 132.726562 Z M 84.070312 132.726562 " fill-opacity="1" fill-rule="evenodd"/><path fill="#3f7b27" d="M 101.207031 122.933594 C 102.417969 126.425781 104.457031 129.417969 107.328125 131.910156 C 107.726562 132.964844 107.863281 134.050781 107.734375 135.171875 C 101.15625 135.671875 97.074219 132.679688 95.496094 126.195312 C 97.78125 125.820312 99.6875 124.730469 101.207031 122.933594 Z M 101.207031 122.933594 " fill-opacity="1" fill-rule="evenodd"/><path fill="#4d8521" d="M 101.207031 122.933594 C 99.6875 124.730469 97.78125 125.820312 95.496094 126.195312 C 94.574219 121.570312 94.574219 116.945312 95.496094 112.324219 C 102.25 114.058594 107.828125 117.59375 112.222656 122.933594 C 112.765625 125.378906 112.765625 127.828125 112.222656 130.277344 C 111.972656 130.9375 111.5625 131.480469 111 131.910156 C 108.550781 129.1875 106.101562 126.46875 103.652344 123.75 C 102.980469 123.027344 102.164062 122.753906 101.207031 122.933594 Z M 101.207031 122.933594 " fill-opacity="1" fill-rule="evenodd"/><path fill="#496865" d="M 152.613281 146.597656 C 152.34375 146.597656 152.070312 146.597656 151.796875 146.597656 C 146.285156 146.089844 141.117188 146.632812 136.292969 148.230469 C 135.554688 147.648438 135.285156 146.835938 135.476562 145.78125 C 141.34375 145.515625 147.054688 145.789062 152.613281 146.597656 Z M 152.613281 146.597656 " fill-opacity="1" fill-rule="evenodd"/><path fill="#f4f7f7" d="M 161.589844 146.597656 C 165.125 146.597656 168.664062 146.597656 172.199219 146.597656 C 172.199219 151.222656 172.199219 155.84375 172.199219 160.46875 C 168.664062 160.46875 165.125 160.46875 161.589844 160.46875 C 161.589844 155.84375 161.589844 151.222656 161.589844 146.597656 Z M 161.589844 146.597656 " fill-opacity="1" fill-rule="evenodd"/><path fill="#f4f7f7" d="M 181.175781 146.597656 C 184.710938 146.597656 188.246094 146.597656 191.78125 146.597656 C 191.78125 151.222656 191.78125 155.84375 191.78125 160.46875 C 188.246094 160.46875 184.710938 160.46875 181.175781 160.46875 C 181.175781 155.84375 181.175781 151.222656 181.175781 146.597656 Z M 181.175781 146.597656 " fill-opacity="1" fill-rule="evenodd"/><path fill="#f7fafa" d="M 212.183594 146.597656 C 212.183594 151.222656 212.183594 155.84375 212.183594 160.46875 C 208.644531 160.46875 205.109375 160.46875 201.574219 160.46875 C 201.574219 155.84375 201.574219 151.222656 201.574219 146.597656 C 205.109375 146.597656 208.644531 146.597656 212.183594 146.597656 Z M 212.183594 146.597656 " fill-opacity="1" fill-rule="evenodd"/><path fill="#f5f7f7" d="M 252.167969 149.042969 C 251.636719 150.625 251.363281 152.253906 251.351562 153.941406 C 250.09375 155.847656 249.550781 158.023438 249.71875 160.46875 C 247.269531 160.46875 244.820312 160.46875 242.375 160.46875 C 242.375 156.117188 242.375 151.765625 242.375 147.414062 C 246.023438 146.933594 249.285156 147.476562 252.167969 149.042969 Z M 252.167969 149.042969 " fill-opacity="1" fill-rule="evenodd"/><path fill="#91a6a4" d="M 231.765625 160.46875 C 231.765625 155.84375 231.765625 151.222656 231.765625 146.597656 C 228.503906 146.597656 225.238281 146.597656 221.972656 146.597656 C 221.972656 151.222656 221.972656 155.84375 221.972656 160.46875 C 221.167969 155.726562 220.894531 150.832031 221.15625 145.78125 C 224.964844 145.78125 228.773438 145.78125 232.582031 145.78125 C 232.847656 150.832031 232.574219 155.726562 231.765625 160.46875 Z M 231.765625 160.46875 " fill-opacity="1" fill-rule="evenodd"/><path fill="#f6f9f9" d="M 231.765625 160.46875 C 228.503906 160.46875 225.238281 160.46875 221.972656 160.46875 C 221.972656 155.84375 221.972656 151.222656 221.972656 146.597656 C 225.238281 146.597656 228.503906 146.597656 231.765625 146.597656 C 231.765625 151.222656 231.765625 155.84375 231.765625 160.46875 Z M 231.765625 160.46875 " fill-opacity="1" fill-rule="evenodd"/><path fill="#90b182" d="M 279.910156 150.675781 C 280.726562 152.308594 281.542969 153.941406 282.359375 155.574219 C 282.578125 156.878906 282.304688 157.964844 281.542969 158.835938 C 280.828125 156.152344 280.285156 153.433594 279.910156 150.675781 Z M 279.910156 150.675781 " fill-opacity="1" fill-rule="evenodd"/><path fill="#416259" d="M 212.183594 146.597656 C 208.644531 146.597656 205.109375 146.597656 201.574219 146.597656 C 201.574219 151.222656 201.574219 155.84375 201.574219 160.46875 C 200.765625 155.726562 200.496094 150.832031 200.757812 145.78125 C 204.726562 145.519531 208.535156 145.792969 212.183594 146.597656 Z M 212.183594 146.597656 " fill-opacity="1" fill-rule="evenodd"/><path fill="#5e961f" d="M 303.574219 153.941406 C 303.574219 155.027344 303.574219 156.117188 303.574219 157.203125 C 300.746094 157.160156 298.570312 158.382812 297.046875 160.875 C 293.910156 162.511719 290.648438 163.734375 287.253906 164.546875 C 286.875 159.734375 288.777344 156.0625 292.964844 153.53125 C 296.765625 150.699219 300.300781 150.835938 303.574219 153.941406 Z M 303.574219 153.941406 " fill-opacity="1" fill-rule="evenodd"/><path fill="#5f972a" d="M 279.09375 158.835938 C 279.09375 161.011719 279.09375 163.1875 279.09375 165.363281 C 275.003906 163.585938 271.46875 161.003906 268.484375 157.613281 C 267.710938 157.21875 266.898438 157.082031 266.039062 157.203125 C 266.039062 158.019531 266.039062 158.835938 266.039062 159.652344 C 265.113281 157.640625 264.976562 155.464844 265.628906 153.125 C 266.410156 151.988281 267.496094 151.441406 268.894531 151.492188 C 273.609375 152.273438 277.011719 154.71875 279.09375 158.835938 Z M 279.09375 158.835938 " fill-opacity="1" fill-rule="evenodd"/><path fill="#1f491d" d="M 112.628906 156.390625 C 113.167969 157.582031 113.441406 158.945312 113.445312 160.46875 C 112.367188 163.996094 111.277344 167.53125 110.183594 171.078125 C 109.457031 171.574219 108.640625 171.847656 107.734375 171.894531 C 107.820312 168.828125 107.003906 166.105469 105.285156 163.734375 C 104.246094 161.925781 103.429688 160.023438 102.839844 158.019531 C 104.273438 158.328125 105.632812 158.871094 106.917969 159.652344 C 108.039062 157.167969 109.945312 156.078125 112.628906 156.390625 Z M 112.628906 156.390625 " fill-opacity="1" fill-rule="evenodd"/><path fill="#59746f" d="M 251.351562 153.941406 C 251.296875 156.328125 250.753906 158.507812 249.71875 160.46875 C 249.550781 158.023438 250.09375 155.847656 251.351562 153.941406 Z M 251.351562 153.941406 " fill-opacity="1" fill-rule="evenodd"/><path fill="#386f18" d="M 75.910156 157.203125 C 77.078125 158.882812 77.625 160.789062 77.542969 162.917969 C 76.574219 164.9375 74.941406 165.753906 72.644531 165.363281 C 71.121094 165.070312 69.894531 164.257812 68.972656 162.917969 C 68.476562 157.5625 70.789062 155.660156 75.910156 157.203125 Z M 75.910156 157.203125 " fill-opacity="1" fill-rule="evenodd"/><path fill="#bccfcc" d="M 151.796875 146.597656 C 152.070312 146.597656 152.34375 146.597656 152.613281 146.597656 C 152.613281 151.222656 152.613281 155.84375 152.613281 160.46875 C 148.261719 160.46875 143.910156 160.46875 139.558594 160.46875 C 139.558594 160.195312 139.558594 159.925781 139.558594 159.652344 C 143.636719 159.652344 147.71875 159.652344 151.796875 159.652344 C 151.796875 155.300781 151.796875 150.949219 151.796875 146.597656 Z M 151.796875 146.597656 " fill-opacity="1" fill-rule="evenodd"/><path fill="#81a669" d="M 75.910156 157.203125 C 76.183594 157.203125 76.453125 157.203125 76.726562 157.203125 C 78.394531 158.996094 78.667969 160.902344 77.542969 162.917969 C 77.625 160.789062 77.078125 158.882812 75.910156 157.203125 Z M 75.910156 157.203125 " fill-opacity="1" fill-rule="evenodd"/><path fill="#215c14" d="M 290.519531 145.78125 C 290.089844 150.441406 288.324219 154.523438 285.214844 158.019531 C 284.542969 160.78125 284.679688 163.5 285.621094 166.179688 C 286.457031 165.890625 287 165.347656 287.253906 164.546875 C 290.648438 163.734375 293.910156 162.511719 297.046875 160.875 C 298.570312 158.382812 300.746094 157.160156 303.574219 157.203125 C 303.574219 156.117188 303.574219 155.027344 303.574219 153.941406 C 304.09375 154.429688 304.367188 155.109375 304.390625 155.980469 C 302.140625 165.28125 296.15625 169.90625 286.4375 169.851562 C 286.03125 170.261719 285.621094 170.667969 285.214844 171.078125 C 284.804688 176.238281 284.671875 181.40625 284.804688 186.582031 C 285.859375 186.773438 286.675781 186.503906 287.253906 185.765625 C 290.242188 184.679688 293.234375 183.589844 296.230469 182.5 C 297.308594 182.363281 298.261719 182.632812 299.085938 183.316406 C 299.070312 184.628906 298.933594 185.988281 298.679688 187.398438 C 294.519531 189.25 290.167969 190.335938 285.621094 190.660156 C 284.8125 195.949219 284.542969 201.386719 284.804688 206.980469 C 283.617188 206.925781 282.527344 207.199219 281.542969 207.796875 C 281.804688 202.203125 281.535156 196.761719 280.726562 191.476562 C 274.019531 191.320312 268.445312 188.601562 264 183.316406 C 263.175781 182.074219 262.765625 180.710938 262.773438 179.238281 C 262.742188 178.210938 263.148438 177.394531 264 176.789062 C 267.933594 181.6875 272.96875 184.679688 279.09375 185.765625 C 279.671875 186.503906 280.488281 186.773438 281.542969 186.582031 C 281.804688 180.988281 281.535156 175.546875 280.726562 170.261719 C 273.445312 169.894531 268.550781 166.359375 266.039062 159.652344 C 266.039062 158.835938 266.039062 158.019531 266.039062 157.203125 C 266.898438 157.082031 267.710938 157.21875 268.484375 157.613281 C 271.46875 161.003906 275.003906 163.585938 279.09375 165.363281 C 279.625 165.613281 280.167969 165.882812 280.726562 166.179688 C 281.527344 163.792969 281.800781 161.34375 281.542969 158.835938 C 282.304688 157.964844 282.578125 156.878906 282.359375 155.574219 C 282.527344 150.347656 284.839844 146.265625 289.292969 143.332031 C 290.140625 143.941406 290.550781 144.757812 290.519531 145.78125 Z M 290.519531 145.78125 " fill-opacity="1" fill-rule="evenodd"/><path fill="#a4bc9d" d="M 279.09375 158.835938 C 279.738281 159.742188 280.148438 160.828125 280.316406 162.101562 C 280.488281 160.828125 280.898438 159.742188 281.542969 158.835938 C 281.800781 161.34375 281.527344 163.792969 280.726562 166.179688 C 280.167969 165.882812 279.625 165.613281 279.09375 165.363281 C 279.09375 163.1875 279.09375 161.011719 279.09375 158.835938 Z M 279.09375 158.835938 " fill-opacity="1" fill-rule="evenodd"/><path fill="#f8f9f9" d="M 151.796875 168.628906 C 151.796875 173.523438 151.796875 178.421875 151.796875 183.316406 C 149.894531 183.316406 147.988281 183.316406 146.085938 183.316406 C 145.542969 181.414062 145 179.507812 144.453125 177.605469 C 144.527344 175.441406 143.984375 173.535156 142.820312 171.894531 C 142.789062 171.007812 142.519531 170.191406 142.007812 169.445312 C 145.226562 168.636719 148.488281 168.363281 151.796875 168.628906 Z M 151.796875 168.628906 " fill-opacity="1" fill-rule="evenodd"/><path fill="#fbfdfd" d="M 171.382812 168.628906 C 171.382812 173.523438 171.382812 178.421875 171.382812 183.316406 C 168.117188 183.316406 164.855469 183.316406 161.589844 183.316406 C 161.589844 178.421875 161.589844 173.523438 161.589844 168.628906 C 164.855469 168.628906 168.117188 168.628906 171.382812 168.628906 Z M 171.382812 168.628906 " fill-opacity="1" fill-rule="evenodd"/><path fill="#fcfdfe" d="M 181.988281 168.628906 C 185.253906 168.628906 188.519531 168.628906 191.78125 168.628906 C 191.78125 173.523438 191.78125 178.421875 191.78125 183.316406 C 188.519531 183.316406 185.253906 183.316406 181.988281 183.316406 C 181.988281 178.421875 181.988281 173.523438 181.988281 168.628906 Z M 181.988281 168.628906 " fill-opacity="1" fill-rule="evenodd"/><path fill="#fbfcfc" d="M 211.367188 168.628906 C 211.367188 173.523438 211.367188 178.421875 211.367188 183.316406 C 208.101562 183.316406 204.839844 183.316406 201.574219 183.316406 C 201.574219 178.421875 201.574219 173.523438 201.574219 168.628906 C 204.839844 168.628906 208.101562 168.628906 211.367188 168.628906 Z M 211.367188 168.628906 " fill-opacity="1" fill-rule="evenodd"/><path fill="#b2c3c3" d="M 171.382812 168.628906 C 172.191406 173.644531 172.460938 178.8125 172.199219 184.132812 C 168.5 184.390625 164.964844 184.121094 161.589844 183.316406 C 164.855469 183.316406 168.117188 183.316406 171.382812 183.316406 C 171.382812 178.421875 171.382812 173.523438 171.382812 168.628906 Z M 171.382812 168.628906 " fill-opacity="1" fill-rule="evenodd"/><path fill="#cfd7d6" d="M 241.558594 168.628906 C 243.273438 168.386719 244.90625 168.65625 246.453125 169.445312 C 242.132812 188.171875 240.5 187.902344 241.558594 168.628906 Z M 241.558594 168.628906 " fill-opacity="1" fill-rule="evenodd"/><path fill="#1e4a19" d="M 85.703125 163.734375 C 87.089844 163.601562 88.449219 163.738281 89.78125 164.140625 C 92.605469 165.824219 95.597656 167.050781 98.757812 167.8125 C 100.273438 167.945312 101.359375 167.398438 102.023438 166.179688 C 104.320312 167.878906 104.867188 170.054688 103.652344 172.707031 C 95.128906 174.789062 89.144531 171.796875 85.703125 163.734375 Z M 85.703125 163.734375 " fill-opacity="1" fill-rule="evenodd"/><path fill="#568e21" d="M 279.09375 181.683594 C 279.09375 183.046875 279.09375 184.40625 279.09375 185.765625 C 272.96875 184.679688 267.933594 181.6875 264 176.789062 C 263.148438 177.394531 262.742188 178.210938 262.773438 179.238281 C 262.503906 179.238281 262.230469 179.238281 261.957031 179.238281 C 261.824219 177.582031 261.960938 175.949219 262.367188 174.339844 C 270.105469 171.75 275.679688 174.195312 279.09375 181.683594 Z M 279.09375 181.683594 " fill-opacity="1" fill-rule="evenodd"/><path fill="#4b8421" d="M 128.132812 183.316406 C 127.605469 184.945312 126.925781 186.578125 126.09375 188.210938 C 125.410156 185.792969 124.59375 185.523438 123.644531 187.398438 C 123.332031 186.941406 122.925781 186.671875 122.421875 186.582031 C 122.542969 185.722656 122.410156 184.90625 122.015625 184.132812 C 120.585938 185.644531 119.359375 187.273438 118.34375 189.027344 C 116.128906 188.773438 114.226562 189.316406 112.628906 190.660156 C 112.875 187.71875 113.824219 185 115.484375 182.5 C 118.207031 178.691406 121.46875 175.429688 125.277344 172.707031 C 126.859375 176.042969 127.8125 179.578125 128.132812 183.316406 Z M 128.132812 183.316406 " fill-opacity="1" fill-rule="evenodd"/><path fill="#788d88" d="M 142.820312 171.894531 C 143.984375 173.535156 144.527344 175.441406 144.453125 177.605469 C 143.292969 175.960938 142.75 174.058594 142.820312 171.894531 Z M 142.820312 171.894531 " fill-opacity="1" fill-rule="evenodd"/><path fill="#92abab" d="M 151.796875 168.628906 C 152.605469 173.644531 152.878906 178.8125 152.613281 184.132812 C 150.261719 184.382812 148.082031 184.109375 146.085938 183.316406 C 147.988281 183.316406 149.894531 183.316406 151.796875 183.316406 C 151.796875 178.421875 151.796875 173.523438 151.796875 168.628906 Z M 151.796875 168.628906 " fill-opacity="1" fill-rule="evenodd"/><path fill="#bfcdd1" d="M 211.367188 168.628906 C 212.175781 173.644531 212.445312 178.8125 212.183594 184.132812 C 208.484375 184.390625 204.949219 184.121094 201.574219 183.316406 C 204.839844 183.316406 208.101562 183.316406 211.367188 183.316406 C 211.367188 178.421875 211.367188 173.523438 211.367188 168.628906 Z M 211.367188 168.628906 " fill-opacity="1" fill-rule="evenodd"/><path fill="#4f941a" d="M 303.574219 175.15625 C 303.574219 175.972656 303.574219 176.789062 303.574219 177.605469 C 300.714844 178.625 298.269531 180.257812 296.230469 182.5 C 293.234375 183.589844 290.242188 184.679688 287.253906 185.765625 C 287.046875 183.464844 287.457031 181.289062 288.476562 179.238281 C 290.246094 177.46875 292.015625 175.699219 293.78125 173.933594 C 296.773438 173.386719 299.765625 173.386719 302.757812 173.933594 C 303.210938 174.246094 303.484375 174.652344 303.574219 175.15625 Z M 303.574219 175.15625 " fill-opacity="1" fill-rule="evenodd"/><path fill="#b9caa4" d="M 70.199219 179.238281 C 72.292969 183.335938 73.925781 187.691406 75.09375 192.292969 C 74.589844 192.203125 74.183594 191.929688 73.871094 191.476562 C 72.386719 187.441406 71.164062 183.359375 70.199219 179.238281 Z M 70.199219 179.238281 " fill-opacity="1" fill-rule="evenodd"/><path fill="#356c1b" d="M 303.574219 175.15625 C 304.078125 175.246094 304.484375 175.519531 304.796875 175.972656 C 304.71875 180.75 302.679688 184.558594 298.679688 187.398438 C 298.933594 185.988281 299.070312 184.628906 299.085938 183.316406 C 298.261719 182.632812 297.308594 182.363281 296.230469 182.5 C 298.269531 180.257812 300.714844 178.625 303.574219 177.605469 C 303.574219 176.789062 303.574219 175.972656 303.574219 175.15625 Z M 303.574219 175.15625 " fill-opacity="1" fill-rule="evenodd"/><path fill="#acc4bf" d="M 181.988281 168.628906 C 181.988281 173.523438 181.988281 178.421875 181.988281 183.316406 C 185.253906 183.316406 188.519531 183.316406 191.78125 183.316406 C 188.410156 184.121094 184.871094 184.390625 181.175781 184.132812 C 180.910156 178.8125 181.183594 173.644531 181.988281 168.628906 Z M 181.988281 168.628906 " fill-opacity="1" fill-rule="evenodd"/><path fill="#f9fbfb" d="M 221.972656 168.628906 C 225.238281 168.628906 228.503906 168.628906 231.765625 168.628906 C 231.765625 173.523438 231.765625 178.421875 231.765625 183.316406 C 228.503906 183.316406 225.238281 183.316406 221.972656 183.316406 C 221.972656 178.421875 221.972656 173.523438 221.972656 168.628906 Z M 221.972656 168.628906 " fill-opacity="1" fill-rule="evenodd"/><path fill="#215317" d="M 101.207031 183.316406 C 102.070312 184.214844 102.75 185.304688 103.246094 186.582031 C 103.652344 189.5625 103.789062 192.550781 103.652344 195.558594 C 99.722656 194.085938 96.1875 191.910156 93.046875 189.027344 C 94.089844 187.859375 95.449219 187.316406 97.125 187.398438 C 96.882812 185.679688 97.152344 184.046875 97.941406 182.5 C 98.949219 183.109375 100.039062 183.382812 101.207031 183.316406 Z M 101.207031 183.316406 " fill-opacity="1" fill-rule="evenodd"/><path fill="#5e932a" d="M 69.382812 173.523438 C 75.21875 174.203125 81.207031 174.609375 87.335938 174.75 C 89.511719 175.292969 91.6875 175.835938 93.863281 176.378906 C 97.273438 177.753906 99.71875 180.066406 101.207031 183.316406 C 100.039062 183.382812 98.949219 183.109375 97.941406 182.5 C 97.152344 184.046875 96.882812 185.679688 97.125 187.398438 C 95.449219 187.316406 94.089844 187.859375 93.046875 189.027344 C 89.394531 187.066406 85.859375 184.890625 82.4375 182.5 C 81.695312 183.554688 81.832031 184.640625 82.847656 185.765625 C 87.523438 189.503906 92.285156 193.039062 97.125 196.371094 C 93.828125 196.652344 90.5625 197.195312 87.335938 198.003906 C 85.179688 197.519531 83.003906 197.246094 80.804688 197.1875 C 80.804688 198.003906 80.804688 198.820312 80.804688 199.636719 C 78.320312 197.664062 76.417969 195.214844 75.09375 192.292969 C 73.925781 187.691406 72.292969 183.335938 70.199219 179.238281 C 69.429688 177.632812 68.613281 176 67.75 174.339844 C 68.125 173.691406 68.667969 173.417969 69.382812 173.523438 Z M 69.382812 173.523438 " fill-opacity="1" fill-rule="evenodd"/><path fill="#235c19" d="M 128.132812 183.316406 C 129.609375 191.523438 126.617188 197.234375 119.15625 200.453125 C 118.273438 200.355469 117.726562 199.8125 117.527344 198.820312 C 119.394531 194.816406 121.027344 190.734375 122.421875 186.582031 C 122.925781 186.671875 123.332031 186.941406 123.644531 187.398438 C 124.59375 185.523438 125.410156 185.792969 126.09375 188.210938 C 126.925781 186.578125 127.605469 184.945312 128.132812 183.316406 Z M 128.132812 183.316406 " fill-opacity="1" fill-rule="evenodd"/><path fill="#508920" d="M 279.09375 203.71875 C 279.09375 204.804688 279.09375 205.894531 279.09375 206.980469 C 274.175781 205.746094 269.820312 203.433594 266.039062 200.042969 C 264.984375 199.644531 263.894531 199.507812 262.773438 199.636719 C 262.773438 200.453125 262.773438 201.269531 262.773438 202.085938 C 260.347656 199.265625 260.617188 196.679688 263.589844 194.332031 C 271.300781 193.292969 276.472656 196.421875 279.09375 203.71875 Z M 279.09375 203.71875 " fill-opacity="1" fill-rule="evenodd"/><path fill="#215117" d="M 97.125 196.371094 C 98.871094 197.421875 100.773438 198.105469 102.839844 198.414062 C 103.558594 198.992188 104.101562 199.671875 104.46875 200.453125 C 103.484375 200.804688 102.667969 201.347656 102.023438 202.085938 C 101.179688 201.386719 100.230469 200.84375 99.167969 200.453125 C 97.445312 201.246094 95.675781 201.925781 93.863281 202.492188 C 88.894531 203.703125 84.542969 202.75 80.804688 199.636719 C 80.804688 198.820312 80.804688 198.003906 80.804688 197.1875 C 83.003906 197.246094 85.179688 197.519531 87.335938 198.003906 C 90.5625 197.195312 93.828125 196.652344 97.125 196.371094 Z M 97.125 196.371094 " fill-opacity="1" fill-rule="evenodd"/><path fill="#4c8b16" d="M 304.390625 196.371094 C 304.519531 197.492188 304.382812 198.582031 303.980469 199.636719 C 303.644531 199.265625 303.234375 198.992188 302.757812 198.820312 C 298.371094 203.054688 293.203125 205.773438 287.253906 206.980469 C 287.253906 206.710938 287.253906 206.4375 287.253906 206.164062 C 287.914062 199.125 291.722656 195.046875 298.679688 193.925781 C 301.128906 193.65625 303.03125 194.472656 304.390625 196.371094 Z M 304.390625 196.371094 " fill-opacity="1" fill-rule="evenodd"/><path fill="#a4cb84" d="M 67.75 199.636719 C 71.820312 199.476562 73.179688 201.246094 71.832031 204.941406 C 69.875 206.691406 68.109375 206.554688 66.527344 204.53125 C 65.914062 202.625 66.324219 200.992188 67.75 199.636719 Z M 67.75 199.636719 " fill-opacity="1" fill-rule="evenodd"/><path fill="#0d3026" d="M 151.796875 233.09375 C 149.542969 232.375 147.367188 231.421875 145.269531 230.238281 C 136.925781 221.800781 136.65625 213.234375 144.453125 204.53125 C 154.875 198.621094 163.171875 200.796875 169.34375 211.0625 C 171.46875 224.839844 165.621094 232.183594 151.796875 233.09375 Z M 151.796875 233.09375 " fill-opacity="1" fill-rule="evenodd"/><path fill="#a0bda4" d="M 285.621094 190.660156 C 285.113281 196.171875 285.65625 201.339844 287.253906 206.164062 C 287.253906 206.4375 287.253906 206.710938 287.253906 206.980469 C 286.4375 206.980469 285.621094 206.980469 284.804688 206.980469 C 284.542969 201.386719 284.8125 195.949219 285.621094 190.660156 Z M 285.621094 190.660156 " fill-opacity="1" fill-rule="evenodd"/><path fill="#0f3226" d="M 239.109375 203.71875 C 247.535156 211.964844 247.808594 220.53125 239.925781 229.421875 C 230.300781 235.496094 222.140625 234 215.445312 224.933594 C 213.960938 220.976562 213.554688 216.894531 214.222656 212.691406 C 219.613281 201.691406 227.910156 198.699219 239.109375 203.71875 Z M 239.109375 203.71875 " fill-opacity="1" fill-rule="evenodd"/><path fill="#a9c1a7" d="M 280.726562 191.476562 C 281.535156 196.761719 281.804688 202.203125 281.542969 207.796875 C 280.488281 207.988281 279.671875 207.71875 279.09375 206.980469 C 279.09375 205.894531 279.09375 204.804688 279.09375 203.71875 C 279.738281 204.621094 280.148438 205.710938 280.316406 206.980469 C 280.726562 201.820312 280.863281 196.652344 280.726562 191.476562 Z M 280.726562 191.476562 " fill-opacity="1" fill-rule="evenodd"/><path fill="#2e6a1b" d="M 125.6875 201.269531 C 131.015625 201.558594 133.597656 204.28125 133.4375 209.429688 C 131.621094 212.988281 128.765625 214.210938 124.871094 213.101562 C 120.363281 208.839844 120.636719 204.894531 125.6875 201.269531 Z M 125.6875 201.269531 " fill-opacity="1" fill-rule="evenodd"/><path fill="#ebf1f0" d="M 226.054688 211.0625 C 229.554688 210.640625 232.683594 211.457031 235.4375 213.507812 C 237.484375 218.914062 235.71875 222.449219 230.132812 224.117188 C 225.832031 223.746094 223.65625 221.433594 223.605469 217.179688 C 223.644531 214.796875 224.460938 212.757812 226.054688 211.0625 Z M 226.054688 211.0625 " fill-opacity="1" fill-rule="evenodd"/><path fill="#ecf2f2" d="M 150.167969 211.0625 C 153.707031 210.527344 156.835938 211.34375 159.550781 213.507812 C 161.726562 218.953125 159.957031 222.488281 154.246094 224.117188 C 147.371094 221.480469 146.007812 217.125 150.167969 211.0625 Z M 150.167969 211.0625 " fill-opacity="1" fill-rule="evenodd"/><path fill="#5e962a" d="M 104.46875 212.691406 C 102.890625 212.164062 101.257812 211.890625 99.574219 211.875 C 99.714844 212.957031 99.441406 213.90625 98.757812 214.734375 C 96.027344 215.050781 93.304688 214.914062 90.597656 214.324219 C 90.535156 215.492188 90.804688 216.582031 91.414062 217.589844 C 94.25 218.132812 96.972656 218.675781 99.574219 219.222656 C 92.753906 218.949219 85.953125 219.222656 79.175781 220.035156 C 79.34375 220.515625 79.617188 220.921875 79.988281 221.261719 C 84.085938 221.597656 88.164062 222.003906 92.230469 222.484375 C 90.492188 224.207031 89.132812 226.109375 88.148438 228.195312 C 86.246094 228.195312 84.34375 228.195312 82.4375 228.195312 C 82.4375 229.285156 82.4375 230.375 82.4375 231.460938 C 76.996094 228.195312 71.558594 224.933594 66.117188 221.667969 C 65.636719 221.136719 65.09375 220.59375 64.484375 220.035156 C 71 215.550781 77.800781 211.609375 84.886719 208.203125 C 88.695312 207.660156 92.5 207.660156 96.308594 208.203125 C 99.660156 208.71875 102.382812 210.214844 104.46875 212.691406 Z M 104.46875 212.691406 " fill-opacity="1" fill-rule="evenodd"/><path fill="#2e6621" d="M 110.183594 171.078125 C 110.761719 178.128906 111.171875 185.199219 111.40625 192.292969 C 111.992188 191.847656 112.398438 191.304688 112.628906 190.660156 C 114.226562 189.316406 116.128906 188.773438 118.34375 189.027344 C 116.859375 192.542969 115.363281 196.078125 113.855469 199.636719 C 113.191406 203.054688 113.328125 206.320312 114.261719 209.429688 C 114.15625 211.1875 114.566406 212.820312 115.484375 214.324219 C 116.914062 215.835938 118.140625 217.46875 119.15625 219.222656 C 119.191406 220.105469 119.460938 220.921875 119.972656 221.667969 C 119.300781 222.390625 118.484375 222.664062 117.527344 222.484375 C 117.527344 223.300781 117.527344 224.117188 117.527344 224.933594 C 117.253906 224.933594 116.980469 224.933594 116.710938 224.933594 C 116.164062 224.117188 115.621094 223.300781 115.078125 222.484375 C 116.164062 221.941406 116.164062 221.398438 115.078125 220.851562 C 111.730469 213.886719 107.378906 207.628906 102.023438 202.085938 C 102.667969 201.347656 103.484375 200.804688 104.46875 200.453125 C 106.859375 201.476562 108.761719 203.109375 110.183594 205.347656 C 110.960938 198.65625 110.144531 192.125 107.734375 185.765625 C 106.742188 181.125 106.742188 176.5 107.734375 171.894531 C 108.640625 171.847656 109.457031 171.574219 110.183594 171.078125 Z M 110.183594 171.078125 " fill-opacity="1" fill-rule="evenodd"/><path fill="#528b28" d="M 197.496094 214.324219 C 195.203125 215.277344 193.570312 216.910156 192.597656 219.222656 C 191.867188 218.324219 191.1875 218.324219 190.558594 219.222656 C 190.417969 223.328125 190.011719 227.40625 189.335938 231.460938 C 186.910156 230.53125 185.144531 228.902344 184.03125 226.566406 C 182.1875 218.089844 184.496094 211.015625 190.964844 205.347656 C 193.789062 207.894531 195.964844 210.886719 197.496094 214.324219 Z M 197.496094 214.324219 " fill-opacity="1" fill-rule="evenodd"/><path fill="#588c2a" d="M 278.277344 227.378906 C 273.074219 227.140625 268.722656 225.101562 265.222656 221.261719 C 263.976562 220.4375 262.617188 220.03125 261.140625 220.035156 C 261.140625 220.851562 261.140625 221.667969 261.140625 222.484375 C 259.753906 220.566406 259.34375 218.390625 259.917969 215.957031 C 260.53125 215.445312 261.210938 215.039062 261.957031 214.734375 C 271.066406 214.179688 276.503906 218.398438 278.277344 227.378906 Z M 278.277344 227.378906 " fill-opacity="1" fill-rule="evenodd"/><path fill="#508b1f" d="M 304.390625 220.851562 C 303.378906 220.109375 302.292969 219.972656 301.125 220.445312 C 297.21875 224.304688 292.59375 226.886719 287.253906 228.195312 C 287.464844 220.496094 291.410156 215.875 299.085938 214.324219 C 303.703125 214.179688 305.46875 216.359375 304.390625 220.851562 Z M 304.390625 220.851562 " fill-opacity="1" fill-rule="evenodd"/><path fill="#295c14" d="M 104.46875 212.691406 C 106.15625 214.175781 107.246094 216.078125 107.734375 218.40625 C 105.066406 219.210938 102.347656 219.480469 99.574219 219.222656 C 96.972656 218.675781 94.25 218.132812 91.414062 217.589844 C 90.804688 216.582031 90.535156 215.492188 90.597656 214.324219 C 93.304688 214.914062 96.027344 215.050781 98.757812 214.734375 C 99.441406 213.90625 99.714844 212.957031 99.574219 211.875 C 101.257812 211.890625 102.890625 212.164062 104.46875 212.691406 Z M 104.46875 212.691406 " fill-opacity="1" fill-rule="evenodd"/><path fill="#96b297" d="M 280.726562 212.691406 C 281.800781 218.003906 281.800781 223.445312 280.726562 229.011719 C 280.230469 228.910156 279.960938 228.640625 279.910156 228.195312 C 280.71875 223.183594 280.988281 218.015625 280.726562 212.691406 Z M 280.726562 212.691406 " fill-opacity="1" fill-rule="evenodd"/><path fill="#39741c" d="M 197.496094 214.324219 C 199.828125 217.722656 200.507812 221.527344 199.535156 225.75 C 198.300781 228.488281 196.261719 230.121094 193.414062 230.644531 C 193.382812 226.816406 193.109375 223.007812 192.597656 219.222656 C 193.570312 216.910156 195.203125 215.277344 197.496094 214.324219 Z M 197.496094 214.324219 " fill-opacity="1" fill-rule="evenodd"/><path fill="#90b684" d="M 115.078125 220.851562 C 116.164062 221.398438 116.164062 221.941406 115.078125 222.484375 C 112.628906 222.484375 110.183594 222.484375 107.734375 222.484375 C 110.183594 221.941406 112.628906 221.398438 115.078125 220.851562 Z M 115.078125 220.851562 " fill-opacity="1" fill-rule="evenodd"/><path fill="#205413" d="M 304.390625 196.371094 C 305.097656 200.578125 303.738281 204.25 300.308594 207.390625 C 295.496094 209.964844 290.464844 211.734375 285.214844 212.691406 C 284.804688 217.855469 284.671875 223.023438 284.804688 228.195312 C 285.621094 228.195312 286.4375 228.195312 287.253906 228.195312 C 292.59375 226.886719 297.21875 224.304688 301.125 220.445312 C 302.292969 219.972656 303.378906 220.109375 304.390625 220.851562 C 304.117188 221.941406 303.847656 223.027344 303.574219 224.117188 C 302.097656 226.269531 300.195312 228.039062 297.863281 229.421875 C 292.8125 230.808594 287.78125 232.035156 282.765625 233.09375 C 278.011719 232.109375 273.25 231.15625 268.484375 230.238281 C 264.84375 228.707031 262.394531 226.125 261.140625 222.484375 C 261.140625 221.667969 261.140625 220.851562 261.140625 220.035156 C 262.617188 220.03125 263.976562 220.4375 265.222656 221.261719 C 268.722656 225.101562 273.074219 227.140625 278.277344 227.378906 C 278.824219 227.652344 279.367188 227.925781 279.910156 228.195312 C 279.960938 228.640625 280.230469 228.910156 280.726562 229.011719 C 281.800781 223.445312 281.800781 218.003906 280.726562 212.691406 C 276.402344 211.671875 272.050781 210.445312 267.671875 209.019531 C 265.203125 207.246094 263.570312 204.933594 262.773438 202.085938 C 262.773438 201.269531 262.773438 200.453125 262.773438 199.636719 C 263.894531 199.507812 264.984375 199.644531 266.039062 200.042969 C 269.820312 203.433594 274.175781 205.746094 279.09375 206.980469 C 279.671875 207.71875 280.488281 207.988281 281.542969 207.796875 C 282.527344 207.199219 283.617188 206.925781 284.804688 206.980469 C 285.621094 206.980469 286.4375 206.980469 287.253906 206.980469 C 293.203125 205.773438 298.371094 203.054688 302.757812 198.820312 C 303.234375 198.992188 303.644531 199.265625 303.980469 199.636719 C 304.382812 198.582031 304.519531 197.492188 304.390625 196.371094 Z M 304.390625 196.371094 " fill-opacity="1" fill-rule="evenodd"/><path fill="#488726" d="M 92.230469 222.484375 C 97.398438 222.484375 102.566406 222.484375 107.734375 222.484375 C 110.183594 222.484375 112.628906 222.484375 115.078125 222.484375 C 115.621094 223.300781 116.164062 224.117188 116.710938 224.933594 C 113.445312 224.933594 110.183594 224.933594 106.917969 224.933594 C 106.679688 223.996094 106 223.449219 104.878906 223.300781 C 102.542969 225.351562 99.960938 227.117188 97.125 228.605469 C 92.78125 229.011719 88.429688 229.148438 84.070312 229.011719 C 84.070312 230.101562 84.070312 231.1875 84.070312 232.277344 C 83.261719 232.417969 82.71875 232.144531 82.4375 231.460938 C 82.4375 230.375 82.4375 229.285156 82.4375 228.195312 C 84.34375 228.195312 86.246094 228.195312 88.148438 228.195312 C 89.132812 226.109375 90.492188 224.207031 92.230469 222.484375 Z M 92.230469 222.484375 " fill-opacity="1" fill-rule="evenodd"/><path fill="#1b4d12" d="M 119.15625 219.222656 C 123.554688 223.746094 128.722656 227.148438 134.664062 229.421875 C 135.882812 232.554688 134.792969 233.644531 131.398438 232.683594 C 126.660156 230.246094 122.035156 227.660156 117.527344 224.933594 C 117.527344 224.117188 117.527344 223.300781 117.527344 222.484375 C 118.484375 222.664062 119.300781 222.390625 119.972656 221.667969 C 119.460938 220.921875 119.191406 220.105469 119.15625 219.222656 Z M 119.15625 219.222656 " fill-opacity="1" fill-rule="evenodd"/><path fill="#205214" d="M 106.917969 224.933594 C 106.746094 226.09375 106.339844 227.179688 105.695312 228.195312 C 99.417969 235.085938 92.210938 236.445312 84.070312 232.277344 C 84.070312 231.1875 84.070312 230.101562 84.070312 229.011719 C 88.429688 229.148438 92.78125 229.011719 97.125 228.605469 C 99.960938 227.117188 102.542969 225.351562 104.878906 223.300781 C 106 223.449219 106.679688 223.996094 106.917969 224.933594 Z M 106.917969 224.933594 " fill-opacity="1" fill-rule="evenodd"/><path fill="#256414" d="M 252.980469 226.566406 C 257.503906 226.585938 258.863281 228.628906 257.0625 232.683594 C 254.941406 233.3125 252.902344 233.175781 250.941406 232.277344 C 250.058594 229.699219 250.738281 227.796875 252.980469 226.566406 Z M 252.980469 226.566406 " fill-opacity="1" fill-rule="evenodd"/><g fill="#0c2f22" fill-opacity="1"><g transform="translate(49.687501, 265.993723)"><g><path d="M 22 -4.25 C 21.90625 -3.9375 21.859375 -3.625 21.859375 -3.3125 C 21.859375 -3.050781 21.890625 -2.828125 21.953125 -2.640625 C 22.023438 -2.460938 22.101562 -2.316406 22.1875 -2.203125 C 22.269531 -2.097656 22.328125 -2.023438 22.359375 -1.984375 C 22.597656 -1.742188 22.71875 -1.503906 22.71875 -1.265625 C 22.71875 -1.210938 22.691406 -1.09375 22.640625 -0.90625 C 22.546875 -0.5625 22.335938 -0.320312 22.015625 -0.1875 C 21.691406 -0.0625 21.191406 0 20.515625 0 L 11.984375 0 C 11.484375 0 11.09375 -0.0820312 10.8125 -0.25 C 10.539062 -0.414062 10.40625 -0.644531 10.40625 -0.9375 C 10.40625 -1.082031 10.441406 -1.238281 10.515625 -1.40625 C 10.585938 -1.59375 10.6875 -1.738281 10.8125 -1.84375 C 10.945312 -1.957031 11.132812 -2.085938 11.375 -2.234375 C 11.757812 -2.453125 12.070312 -2.691406 12.3125 -2.953125 C 12.550781 -3.210938 12.753906 -3.644531 12.921875 -4.25 L 13.859375 -7.34375 L 8.25 -7.34375 L 7.265625 -5.296875 C 6.859375 -4.398438 6.65625 -3.703125 6.65625 -3.203125 C 6.65625 -2.910156 6.703125 -2.675781 6.796875 -2.5 C 6.898438 -2.320312 7.046875 -2.132812 7.234375 -1.9375 C 7.398438 -1.75 7.515625 -1.585938 7.578125 -1.453125 C 7.640625 -1.328125 7.644531 -1.15625 7.59375 -0.9375 C 7.5 -0.570312 7.300781 -0.320312 7 -0.1875 C 6.695312 -0.0625 6.222656 0 5.578125 0 L 0.21875 0 C -0.332031 0 -0.75 -0.0976562 -1.03125 -0.296875 C -1.320312 -0.503906 -1.46875 -0.773438 -1.46875 -1.109375 C -1.46875 -1.492188 -1.328125 -1.800781 -1.046875 -2.03125 C -0.773438 -2.257812 -0.363281 -2.503906 0.1875 -2.765625 C 0.90625 -3.128906 1.476562 -3.484375 1.90625 -3.828125 C 2.34375 -4.179688 2.71875 -4.671875 3.03125 -5.296875 L 9.4375 -18.578125 C 10.414062 -20.640625 11.570312 -22.128906 12.90625 -23.046875 C 14.238281 -23.972656 16 -24.4375 18.1875 -24.4375 C 20.632812 -24.4375 22.53125 -23.9375 23.875 -22.9375 C 25.21875 -21.945312 25.890625 -20.566406 25.890625 -18.796875 C 25.890625 -18.046875 25.769531 -17.273438 25.53125 -16.484375 Z M 14.9375 -10.9375 L 16.84375 -17.28125 C 16.9375 -17.570312 16.984375 -17.875 16.984375 -18.1875 C 16.984375 -18.632812 16.859375 -18.972656 16.609375 -19.203125 C 16.359375 -19.429688 16.003906 -19.546875 15.546875 -19.546875 C 14.972656 -19.546875 14.484375 -19.378906 14.078125 -19.046875 C 13.671875 -18.710938 13.265625 -18.113281 12.859375 -17.25 L 9.90625 -10.9375 Z M 14.9375 -10.9375 "/></g></g></g><g fill="#0c2f22" fill-opacity="1"><g transform="translate(74.815555, 265.993723)"><g><path d="M 10.65625 0.21875 C 9.050781 0.21875 7.59375 -0.132812 6.28125 -0.84375 C 4.96875 -1.550781 3.925781 -2.59375 3.15625 -3.96875 C 2.394531 -5.351562 2.015625 -7.003906 2.015625 -8.921875 C 2.015625 -10.390625 2.265625 -12.023438 2.765625 -13.828125 C 3.867188 -17.660156 5.601562 -20.367188 7.96875 -21.953125 C 10.332031 -23.546875 12.859375 -24.34375 15.546875 -24.34375 C 17.992188 -24.34375 20.203125 -23.453125 22.171875 -21.671875 L 23.25 -22.71875 C 23.851562 -23.21875 24.367188 -23.5625 24.796875 -23.75 C 25.234375 -23.945312 25.738281 -24.046875 26.3125 -24.046875 C 26.9375 -24.046875 27.441406 -23.894531 27.828125 -23.59375 C 28.210938 -23.289062 28.40625 -22.890625 28.40625 -22.390625 C 28.40625 -22.203125 28.367188 -21.972656 28.296875 -21.703125 L 27 -17.171875 C 26.757812 -16.398438 26.476562 -15.859375 26.15625 -15.546875 C 25.832031 -15.234375 25.394531 -15.078125 24.84375 -15.078125 C 24.257812 -15.078125 23.742188 -15.222656 23.296875 -15.515625 C 22.859375 -15.804688 22.351562 -16.320312 21.78125 -17.0625 C 21.007812 -18.070312 20.328125 -18.785156 19.734375 -19.203125 C 19.148438 -19.628906 18.507812 -19.84375 17.8125 -19.84375 C 16.738281 -19.84375 15.710938 -19.296875 14.734375 -18.203125 C 13.765625 -17.109375 12.921875 -15.289062 12.203125 -12.75 C 11.742188 -11.09375 11.515625 -9.660156 11.515625 -8.453125 C 11.515625 -7.179688 11.757812 -6.21875 12.25 -5.5625 C 12.75 -4.90625 13.441406 -4.578125 14.328125 -4.578125 C 15.097656 -4.578125 15.691406 -4.753906 16.109375 -5.109375 C 16.523438 -5.472656 16.851562 -6.097656 17.09375 -6.984375 L 17.359375 -7.890625 C 17.472656 -8.367188 17.53125 -8.691406 17.53125 -8.859375 C 17.53125 -9.140625 17.460938 -9.335938 17.328125 -9.453125 C 17.203125 -9.578125 16.984375 -9.710938 16.671875 -9.859375 L 15.40625 -10.328125 C 14.851562 -10.546875 14.578125 -10.941406 14.578125 -11.515625 C 14.578125 -11.679688 14.585938 -11.816406 14.609375 -11.921875 C 14.710938 -12.234375 14.890625 -12.457031 15.140625 -12.59375 C 15.390625 -12.738281 15.78125 -12.8125 16.3125 -12.8125 L 27.1875 -12.78125 C 27.976562 -12.78125 28.375 -12.53125 28.375 -12.03125 C 28.375 -11.925781 28.347656 -11.78125 28.296875 -11.59375 C 28.203125 -11.226562 28.046875 -10.9375 27.828125 -10.71875 C 27.609375 -10.507812 27.296875 -10.296875 26.890625 -10.078125 L 25.953125 -9.546875 C 25.710938 -9.398438 25.53125 -9.257812 25.40625 -9.125 C 25.289062 -8.988281 25.207031 -8.828125 25.15625 -8.640625 L 23.25 -1.984375 C 23.007812 -1.191406 22.738281 -0.660156 22.4375 -0.390625 C 22.144531 -0.128906 21.78125 0 21.34375 0 L 19.84375 0 C 19.257812 0 18.78125 -0.117188 18.40625 -0.359375 C 18.039062 -0.597656 17.738281 -1.066406 17.5 -1.765625 L 17.140625 -2.8125 C 15.410156 -0.789062 13.25 0.21875 10.65625 0.21875 Z M 10.65625 0.21875 "/></g></g></g><g fill="#0c2f22" fill-opacity="1"><g transform="translate(102.06761, 265.993723)"><g><path d="M 27.5 -16.671875 C 27.113281 -15.273438 26.394531 -14.1875 25.34375 -13.40625 C 24.289062 -12.625 22.957031 -12.140625 21.34375 -11.953125 C 22.5 -11.859375 23.363281 -11.519531 23.9375 -10.9375 C 24.507812 -10.363281 24.796875 -9.609375 24.796875 -8.671875 C 24.796875 -8.316406 24.738281 -7.875 24.625 -7.34375 L 24.234375 -5.578125 C 24.179688 -5.335938 24.15625 -5.171875 24.15625 -5.078125 C 24.15625 -4.765625 24.226562 -4.53125 24.375 -4.375 C 24.519531 -4.21875 24.722656 -4.140625 24.984375 -4.140625 C 25.484375 -4.140625 25.847656 -4.066406 26.078125 -3.921875 C 26.304688 -3.773438 26.382812 -3.507812 26.3125 -3.125 C 26.21875 -2.570312 25.929688 -2.03125 25.453125 -1.5 C 24.972656 -0.976562 24.296875 -0.539062 23.421875 -0.1875 C 22.546875 0.15625 21.484375 0.328125 20.234375 0.328125 C 18.648438 0.328125 17.390625 -0.0234375 16.453125 -0.734375 C 15.515625 -1.441406 15.046875 -2.457031 15.046875 -3.78125 C 15.046875 -4.28125 15.117188 -4.820312 15.265625 -5.40625 L 15.84375 -7.703125 C 15.9375 -8.015625 15.984375 -8.335938 15.984375 -8.671875 C 15.984375 -9.222656 15.796875 -9.617188 15.421875 -9.859375 C 15.054688 -10.097656 14.460938 -10.21875 13.640625 -10.21875 L 12.28125 -10.21875 L 10.625 -4.25 C 10.570312 -4.101562 10.546875 -3.921875 10.546875 -3.703125 C 10.546875 -3.367188 10.628906 -3.082031 10.796875 -2.84375 C 10.960938 -2.601562 11.191406 -2.351562 11.484375 -2.09375 C 11.703125 -1.925781 11.867188 -1.765625 11.984375 -1.609375 C 12.109375 -1.453125 12.171875 -1.285156 12.171875 -1.109375 C 12.171875 -0.703125 11.976562 -0.414062 11.59375 -0.25 C 11.207031 -0.0820312 10.644531 0 9.90625 0 L 0.859375 0 C 0.234375 0 -0.234375 -0.113281 -0.546875 -0.34375 C -0.859375 -0.570312 -0.960938 -0.890625 -0.859375 -1.296875 C -0.816406 -1.515625 -0.726562 -1.6875 -0.59375 -1.8125 C -0.457031 -1.945312 -0.257812 -2.097656 0 -2.265625 C 0.40625 -2.503906 0.726562 -2.753906 0.96875 -3.015625 C 1.207031 -3.285156 1.398438 -3.695312 1.546875 -4.25 L 5.9375 -19.765625 C 6.03125 -20.078125 6.078125 -20.375 6.078125 -20.65625 C 6.078125 -20.925781 6.035156 -21.148438 5.953125 -21.328125 C 5.867188 -21.503906 5.753906 -21.710938 5.609375 -21.953125 C 5.398438 -22.265625 5.296875 -22.519531 5.296875 -22.71875 C 5.296875 -22.789062 5.316406 -22.921875 5.359375 -23.109375 C 5.460938 -23.421875 5.675781 -23.640625 6 -23.765625 C 6.320312 -23.898438 6.816406 -23.96875 7.484375 -23.96875 L 19.546875 -23.96875 C 21.203125 -23.96875 22.644531 -23.71875 23.875 -23.21875 C 25.113281 -22.71875 26.0625 -22.03125 26.71875 -21.15625 C 27.382812 -20.28125 27.71875 -19.289062 27.71875 -18.1875 C 27.71875 -17.675781 27.644531 -17.171875 27.5 -16.671875 Z M 18.28125 -17.03125 C 18.40625 -17.582031 18.46875 -18 18.46875 -18.28125 C 18.46875 -19.5625 17.769531 -20.203125 16.375 -20.203125 L 14.875 -20.203125 L 13.28125 -13.828125 L 14.796875 -13.828125 C 15.734375 -13.828125 16.46875 -14.050781 17 -14.5 C 17.539062 -14.957031 17.96875 -15.800781 18.28125 -17.03125 Z M 18.28125 -17.03125 "/></g></g></g><g fill="#0c2f22" fill-opacity="1"><g transform="translate(129.391659, 265.993723)"><g><path d="M 17.53125 -24.515625 C 20.550781 -24.515625 22.914062 -23.800781 24.625 -22.375 C 26.332031 -20.945312 27.1875 -18.890625 27.1875 -16.203125 C 27.1875 -14.929688 26.992188 -13.5625 26.609375 -12.09375 C 25.890625 -9.40625 24.769531 -7.125 23.25 -5.25 C 21.738281 -3.382812 19.9375 -1.96875 17.84375 -1 C 15.757812 -0.0390625 13.492188 0.4375 11.046875 0.4375 C 8.046875 0.4375 5.691406 -0.273438 3.984375 -1.703125 C 2.285156 -3.140625 1.4375 -5.203125 1.4375 -7.890625 C 1.4375 -9.109375 1.640625 -10.507812 2.046875 -12.09375 C 2.742188 -14.757812 3.84375 -17.019531 5.34375 -18.875 C 6.84375 -20.738281 8.628906 -22.144531 10.703125 -23.09375 C 12.785156 -24.039062 15.0625 -24.515625 17.53125 -24.515625 Z M 16.890625 -20.984375 C 16.160156 -20.984375 15.507812 -20.695312 14.9375 -20.125 C 14.363281 -19.550781 13.796875 -18.609375 13.234375 -17.296875 C 12.671875 -15.992188 12.0625 -14.175781 11.40625 -11.84375 C 10.445312 -8.476562 9.96875 -6.160156 9.96875 -4.890625 C 9.96875 -4.148438 10.097656 -3.609375 10.359375 -3.265625 C 10.628906 -2.929688 11.050781 -2.765625 11.625 -2.765625 C 12.34375 -2.765625 12.988281 -3.054688 13.5625 -3.640625 C 14.144531 -4.234375 14.710938 -5.175781 15.265625 -6.46875 C 15.816406 -7.769531 16.425781 -9.5625 17.09375 -11.84375 C 18.03125 -15.15625 18.5 -17.484375 18.5 -18.828125 C 18.5 -19.597656 18.367188 -20.148438 18.109375 -20.484375 C 17.847656 -20.816406 17.441406 -20.984375 16.890625 -20.984375 Z M 16.890625 -20.984375 "/></g></g></g><g fill="#0c2f22" fill-opacity="1"><g transform="translate(155.779707, 265.993723)"><g><path d="M 38.65625 -23.96875 C 39.164062 -23.96875 39.554688 -23.890625 39.828125 -23.734375 C 40.109375 -23.585938 40.25 -23.367188 40.25 -23.078125 C 40.25 -22.953125 40.210938 -22.796875 40.140625 -22.609375 C 40.066406 -22.390625 39.960938 -22.222656 39.828125 -22.109375 C 39.703125 -22.003906 39.503906 -21.867188 39.234375 -21.703125 C 38.847656 -21.492188 38.539062 -21.253906 38.3125 -20.984375 C 38.09375 -20.722656 37.898438 -20.316406 37.734375 -19.765625 L 33.34375 -4.28125 C 33.238281 -3.96875 33.1875 -3.671875 33.1875 -3.390625 C 33.1875 -3.117188 33.226562 -2.894531 33.3125 -2.71875 C 33.394531 -2.539062 33.507812 -2.332031 33.65625 -2.09375 C 33.75 -1.96875 33.832031 -1.835938 33.90625 -1.703125 C 33.976562 -1.578125 34.015625 -1.441406 34.015625 -1.296875 C 34.015625 -1.242188 33.992188 -1.125 33.953125 -0.9375 C 33.847656 -0.625 33.625 -0.394531 33.28125 -0.25 C 32.9375 -0.101562 32.4375 -0.03125 31.78125 -0.03125 L 23.328125 -0.03125 C 22.828125 -0.03125 22.4375 -0.113281 22.15625 -0.28125 C 21.882812 -0.457031 21.75 -0.6875 21.75 -0.96875 C 21.75 -1.113281 21.785156 -1.269531 21.859375 -1.4375 C 21.921875 -1.601562 22.019531 -1.753906 22.15625 -1.890625 C 22.289062 -2.023438 22.410156 -2.117188 22.515625 -2.171875 C 22.628906 -2.234375 22.707031 -2.289062 22.75 -2.34375 C 23.132812 -2.550781 23.445312 -2.785156 23.6875 -3.046875 C 23.925781 -3.316406 24.128906 -3.726562 24.296875 -4.28125 L 27.03125 -14 L 17.71875 -2.453125 C 16.945312 -1.515625 16.328125 -0.867188 15.859375 -0.515625 C 15.390625 -0.171875 14.851562 0 14.25 0 C 13.675781 0 13.226562 -0.179688 12.90625 -0.546875 C 12.582031 -0.921875 12.289062 -1.554688 12.03125 -2.453125 L 8.640625 -13.578125 L 5.96875 -4.25 C 5.875 -3.9375 5.828125 -3.632812 5.828125 -3.34375 C 5.828125 -3.0625 5.867188 -2.820312 5.953125 -2.625 C 6.035156 -2.4375 6.164062 -2.234375 6.34375 -2.015625 C 6.550781 -1.703125 6.65625 -1.453125 6.65625 -1.265625 C 6.65625 -1.210938 6.632812 -1.09375 6.59375 -0.90625 C 6.488281 -0.5625 6.269531 -0.320312 5.9375 -0.1875 C 5.601562 -0.0625 5.097656 0 4.421875 0 L 1.4375 0 C 0.9375 0 0.546875 -0.0820312 0.265625 -0.25 C -0.00390625 -0.414062 -0.140625 -0.644531 -0.140625 -0.9375 C -0.140625 -1.082031 -0.101562 -1.238281 -0.03125 -1.40625 C 0.0625 -1.664062 0.210938 -1.867188 0.421875 -2.015625 C 0.640625 -2.160156 0.773438 -2.242188 0.828125 -2.265625 C 1.210938 -2.503906 1.523438 -2.75 1.765625 -3 C 2.003906 -3.257812 2.207031 -3.675781 2.375 -4.25 L 6.765625 -19.796875 L 6.1875 -21.703125 C 6.070312 -22.066406 6.015625 -22.414062 6.015625 -22.75 C 6.015625 -23.1875 6.148438 -23.5 6.421875 -23.6875 C 6.703125 -23.875 7.128906 -23.96875 7.703125 -23.96875 L 13.28125 -23.96875 C 14 -23.96875 14.53125 -23.8125 14.875 -23.5 C 15.226562 -23.195312 15.515625 -22.660156 15.734375 -21.890625 L 19.328125 -9.9375 L 29.09375 -22.0625 C 29.71875 -22.832031 30.328125 -23.34375 30.921875 -23.59375 C 31.523438 -23.84375 32.316406 -23.96875 33.296875 -23.96875 Z M 38.65625 -23.96875 "/></g></g></g><g fill="#0c2f22" fill-opacity="1"><g transform="translate(193.039779, 265.993723)"><g><path d="M 22 -4.25 C 21.90625 -3.9375 21.859375 -3.625 21.859375 -3.3125 C 21.859375 -3.050781 21.890625 -2.828125 21.953125 -2.640625 C 22.023438 -2.460938 22.101562 -2.316406 22.1875 -2.203125 C 22.269531 -2.097656 22.328125 -2.023438 22.359375 -1.984375 C 22.597656 -1.742188 22.71875 -1.503906 22.71875 -1.265625 C 22.71875 -1.210938 22.691406 -1.09375 22.640625 -0.90625 C 22.546875 -0.5625 22.335938 -0.320312 22.015625 -0.1875 C 21.691406 -0.0625 21.191406 0 20.515625 0 L 11.984375 0 C 11.484375 0 11.09375 -0.0820312 10.8125 -0.25 C 10.539062 -0.414062 10.40625 -0.644531 10.40625 -0.9375 C 10.40625 -1.082031 10.441406 -1.238281 10.515625 -1.40625 C 10.585938 -1.59375 10.6875 -1.738281 10.8125 -1.84375 C 10.945312 -1.957031 11.132812 -2.085938 11.375 -2.234375 C 11.757812 -2.453125 12.070312 -2.691406 12.3125 -2.953125 C 12.550781 -3.210938 12.753906 -3.644531 12.921875 -4.25 L 13.859375 -7.34375 L 8.25 -7.34375 L 7.265625 -5.296875 C 6.859375 -4.398438 6.65625 -3.703125 6.65625 -3.203125 C 6.65625 -2.910156 6.703125 -2.675781 6.796875 -2.5 C 6.898438 -2.320312 7.046875 -2.132812 7.234375 -1.9375 C 7.398438 -1.75 7.515625 -1.585938 7.578125 -1.453125 C 7.640625 -1.328125 7.644531 -1.15625 7.59375 -0.9375 C 7.5 -0.570312 7.300781 -0.320312 7 -0.1875 C 6.695312 -0.0625 6.222656 0 5.578125 0 L 0.21875 0 C -0.332031 0 -0.75 -0.0976562 -1.03125 -0.296875 C -1.320312 -0.503906 -1.46875 -0.773438 -1.46875 -1.109375 C -1.46875 -1.492188 -1.328125 -1.800781 -1.046875 -2.03125 C -0.773438 -2.257812 -0.363281 -2.503906 0.1875 -2.765625 C 0.90625 -3.128906 1.476562 -3.484375 1.90625 -3.828125 C 2.34375 -4.179688 2.71875 -4.671875 3.03125 -5.296875 L 9.4375 -18.578125 C 10.414062 -20.640625 11.570312 -22.128906 12.90625 -23.046875 C 14.238281 -23.972656 16 -24.4375 18.1875 -24.4375 C 20.632812 -24.4375 22.53125 -23.9375 23.875 -22.9375 C 25.21875 -21.945312 25.890625 -20.566406 25.890625 -18.796875 C 25.890625 -18.046875 25.769531 -17.273438 25.53125 -16.484375 Z M 14.9375 -10.9375 L 16.84375 -17.28125 C 16.9375 -17.570312 16.984375 -17.875 16.984375 -18.1875 C 16.984375 -18.632812 16.859375 -18.972656 16.609375 -19.203125 C 16.359375 -19.429688 16.003906 -19.546875 15.546875 -19.546875 C 14.972656 -19.546875 14.484375 -19.378906 14.078125 -19.046875 C 13.671875 -18.710938 13.265625 -18.113281 12.859375 -17.25 L 9.90625 -10.9375 Z M 14.9375 -10.9375 "/></g></g></g><g fill="#0c2f22" fill-opacity="1"><g transform="translate(218.167833, 265.993723)"><g><path d="M 27.5 -16.671875 C 27.113281 -15.273438 26.394531 -14.1875 25.34375 -13.40625 C 24.289062 -12.625 22.957031 -12.140625 21.34375 -11.953125 C 22.5 -11.859375 23.363281 -11.519531 23.9375 -10.9375 C 24.507812 -10.363281 24.796875 -9.609375 24.796875 -8.671875 C 24.796875 -8.316406 24.738281 -7.875 24.625 -7.34375 L 24.234375 -5.578125 C 24.179688 -5.335938 24.15625 -5.171875 24.15625 -5.078125 C 24.15625 -4.765625 24.226562 -4.53125 24.375 -4.375 C 24.519531 -4.21875 24.722656 -4.140625 24.984375 -4.140625 C 25.484375 -4.140625 25.847656 -4.066406 26.078125 -3.921875 C 26.304688 -3.773438 26.382812 -3.507812 26.3125 -3.125 C 26.21875 -2.570312 25.929688 -2.03125 25.453125 -1.5 C 24.972656 -0.976562 24.296875 -0.539062 23.421875 -0.1875 C 22.546875 0.15625 21.484375 0.328125 20.234375 0.328125 C 18.648438 0.328125 17.390625 -0.0234375 16.453125 -0.734375 C 15.515625 -1.441406 15.046875 -2.457031 15.046875 -3.78125 C 15.046875 -4.28125 15.117188 -4.820312 15.265625 -5.40625 L 15.84375 -7.703125 C 15.9375 -8.015625 15.984375 -8.335938 15.984375 -8.671875 C 15.984375 -9.222656 15.796875 -9.617188 15.421875 -9.859375 C 15.054688 -10.097656 14.460938 -10.21875 13.640625 -10.21875 L 12.28125 -10.21875 L 10.625 -4.25 C 10.570312 -4.101562 10.546875 -3.921875 10.546875 -3.703125 C 10.546875 -3.367188 10.628906 -3.082031 10.796875 -2.84375 C 10.960938 -2.601562 11.191406 -2.351562 11.484375 -2.09375 C 11.703125 -1.925781 11.867188 -1.765625 11.984375 -1.609375 C 12.109375 -1.453125 12.171875 -1.285156 12.171875 -1.109375 C 12.171875 -0.703125 11.976562 -0.414062 11.59375 -0.25 C 11.207031 -0.0820312 10.644531 0 9.90625 0 L 0.859375 0 C 0.234375 0 -0.234375 -0.113281 -0.546875 -0.34375 C -0.859375 -0.570312 -0.960938 -0.890625 -0.859375 -1.296875 C -0.816406 -1.515625 -0.726562 -1.6875 -0.59375 -1.8125 C -0.457031 -1.945312 -0.257812 -2.097656 0 -2.265625 C 0.40625 -2.503906 0.726562 -2.753906 0.96875 -3.015625 C 1.207031 -3.285156 1.398438 -3.695312 1.546875 -4.25 L 5.9375 -19.765625 C 6.03125 -20.078125 6.078125 -20.375 6.078125 -20.65625 C 6.078125 -20.925781 6.035156 -21.148438 5.953125 -21.328125 C 5.867188 -21.503906 5.753906 -21.710938 5.609375 -21.953125 C 5.398438 -22.265625 5.296875 -22.519531 5.296875 -22.71875 C 5.296875 -22.789062 5.316406 -22.921875 5.359375 -23.109375 C 5.460938 -23.421875 5.675781 -23.640625 6 -23.765625 C 6.320312 -23.898438 6.816406 -23.96875 7.484375 -23.96875 L 19.546875 -23.96875 C 21.203125 -23.96875 22.644531 -23.71875 23.875 -23.21875 C 25.113281 -22.71875 26.0625 -22.03125 26.71875 -21.15625 C 27.382812 -20.28125 27.71875 -19.289062 27.71875 -18.1875 C 27.71875 -17.675781 27.644531 -17.171875 27.5 -16.671875 Z M 18.28125 -17.03125 C 18.40625 -17.582031 18.46875 -18 18.46875 -18.28125 C 18.46875 -19.5625 17.769531 -20.203125 16.375 -20.203125 L 14.875 -20.203125 L 13.28125 -13.828125 L 14.796875 -13.828125 C 15.734375 -13.828125 16.46875 -14.050781 17 -14.5 C 17.539062 -14.957031 17.96875 -15.800781 18.28125 -17.03125 Z M 18.28125 -17.03125 "/></g></g></g><g fill="#0c2f22" fill-opacity="1"><g transform="translate(245.491871, 265.993723)"><g><path d="M 26.359375 -24.125 C 27.359375 -24.125 28.191406 -23.796875 28.859375 -23.140625 C 29.535156 -22.492188 29.875 -21.617188 29.875 -20.515625 C 29.875 -19.265625 29.5 -18.253906 28.75 -17.484375 C 28.007812 -16.722656 27.125 -16.34375 26.09375 -16.34375 C 25.425781 -16.34375 24.851562 -16.460938 24.375 -16.703125 C 23.894531 -16.941406 23.4375 -17.328125 23 -17.859375 L 19.90625 -15.265625 L 23.40625 -4.9375 C 23.613281 -4.332031 23.84375 -3.847656 24.09375 -3.484375 C 24.351562 -3.128906 24.660156 -2.769531 25.015625 -2.40625 C 25.285156 -2.144531 25.472656 -1.9375 25.578125 -1.78125 C 25.679688 -1.625 25.734375 -1.4375 25.734375 -1.21875 C 25.734375 -0.832031 25.5625 -0.53125 25.21875 -0.3125 C 24.875 -0.101562 24.269531 0 23.40625 0 L 18.6875 0 C 17.507812 0 16.640625 -0.253906 16.078125 -0.765625 C 15.515625 -1.285156 15.050781 -2.144531 14.6875 -3.34375 L 12.890625 -9.390625 L 11.84375 -8.53125 L 10.65625 -4.25 C 10.5625 -3.9375 10.515625 -3.632812 10.515625 -3.34375 C 10.515625 -3.0625 10.554688 -2.820312 10.640625 -2.625 C 10.722656 -2.4375 10.847656 -2.234375 11.015625 -2.015625 C 11.234375 -1.703125 11.34375 -1.453125 11.34375 -1.265625 C 11.34375 -1.210938 11.316406 -1.09375 11.265625 -0.90625 C 11.171875 -0.5625 10.953125 -0.320312 10.609375 -0.1875 C 10.273438 -0.0625 9.773438 0 9.109375 0 L 0.640625 0 C 0.140625 0 -0.242188 -0.0820312 -0.515625 -0.25 C -0.796875 -0.414062 -0.9375 -0.644531 -0.9375 -0.9375 C -0.9375 -1.082031 -0.898438 -1.238281 -0.828125 -1.40625 C -0.734375 -1.664062 -0.578125 -1.867188 -0.359375 -2.015625 C -0.140625 -2.160156 -0.0078125 -2.242188 0.03125 -2.265625 C 0.414062 -2.503906 0.726562 -2.75 0.96875 -3 C 1.207031 -3.257812 1.410156 -3.675781 1.578125 -4.25 L 5.96875 -19.765625 C 6.070312 -20.078125 6.125 -20.375 6.125 -20.65625 C 6.125 -20.925781 6.082031 -21.148438 6 -21.328125 C 5.914062 -21.503906 5.800781 -21.710938 5.65625 -21.953125 C 5.4375 -22.265625 5.328125 -22.519531 5.328125 -22.71875 C 5.328125 -22.789062 5.351562 -22.921875 5.40625 -23.109375 C 5.5 -23.421875 5.707031 -23.640625 6.03125 -23.765625 C 6.351562 -23.898438 6.851562 -23.96875 7.53125 -23.96875 L 15.984375 -23.96875 C 16.484375 -23.96875 16.867188 -23.890625 17.140625 -23.734375 C 17.421875 -23.585938 17.5625 -23.367188 17.5625 -23.078125 C 17.5625 -22.953125 17.523438 -22.796875 17.453125 -22.609375 C 17.390625 -22.441406 17.289062 -22.289062 17.15625 -22.15625 C 17.019531 -22.019531 16.894531 -21.921875 16.78125 -21.859375 C 16.675781 -21.804688 16.601562 -21.753906 16.5625 -21.703125 C 16.175781 -21.492188 15.863281 -21.253906 15.625 -20.984375 C 15.382812 -20.722656 15.179688 -20.316406 15.015625 -19.765625 L 13.5 -14.40625 L 23.046875 -22.640625 C 23.660156 -23.171875 24.21875 -23.550781 24.71875 -23.78125 C 25.226562 -24.007812 25.773438 -24.125 26.359375 -24.125 Z M 26.359375 -24.125 "/></g></g></g><g fill="#0c2f22" fill-opacity="1"><g transform="translate(273.823916, 265.993723)"><g><path d="M 23.515625 -23.96875 C 24.398438 -23.96875 25.085938 -23.773438 25.578125 -23.390625 C 26.066406 -23.015625 26.3125 -22.488281 26.3125 -21.8125 C 26.3125 -21.476562 26.265625 -21.15625 26.171875 -20.84375 L 25.234375 -17.5 C 25.066406 -16.851562 24.820312 -16.398438 24.5 -16.140625 C 24.175781 -15.890625 23.710938 -15.765625 23.109375 -15.765625 C 22.535156 -15.765625 22.085938 -15.890625 21.765625 -16.140625 C 21.441406 -16.398438 21.195312 -16.816406 21.03125 -17.390625 L 20.453125 -19.4375 C 20.328125 -19.875 20.179688 -20.160156 20.015625 -20.296875 C 19.847656 -20.441406 19.523438 -20.515625 19.046875 -20.515625 L 15.265625 -20.515625 L 13.46875 -14.109375 L 15.046875 -14.109375 C 15.210938 -14.109375 15.441406 -14.226562 15.734375 -14.46875 L 16.953125 -15.546875 C 17.316406 -15.859375 17.628906 -16.085938 17.890625 -16.234375 C 18.148438 -16.378906 18.472656 -16.453125 18.859375 -16.453125 C 19.296875 -16.453125 19.648438 -16.335938 19.921875 -16.109375 C 20.203125 -15.878906 20.34375 -15.585938 20.34375 -15.234375 C 20.34375 -15.128906 20.316406 -14.984375 20.265625 -14.796875 L 18.796875 -9.796875 C 18.648438 -9.265625 18.398438 -8.875 18.046875 -8.625 C 17.703125 -8.375 17.328125 -8.25 16.921875 -8.25 C 16.242188 -8.25 15.738281 -8.59375 15.40625 -9.28125 L 14.796875 -10.546875 C 14.628906 -10.910156 14.363281 -11.09375 14 -11.09375 L 12.59375 -11.09375 L 10.46875 -3.453125 L 13.640625 -3.453125 C 14.097656 -3.453125 14.5 -3.539062 14.84375 -3.71875 C 15.195312 -3.90625 15.578125 -4.226562 15.984375 -4.6875 L 18.140625 -7.0625 C 18.523438 -7.46875 18.890625 -7.757812 19.234375 -7.9375 C 19.585938 -8.113281 20.015625 -8.203125 20.515625 -8.203125 C 21.046875 -8.203125 21.476562 -8.082031 21.8125 -7.84375 C 22.144531 -7.601562 22.3125 -7.242188 22.3125 -6.765625 C 22.3125 -6.578125 22.28125 -6.347656 22.21875 -6.078125 L 21.171875 -2.453125 C 20.898438 -1.535156 20.515625 -0.894531 20.015625 -0.53125 C 19.515625 -0.175781 18.78125 0 17.8125 0 L 0.640625 0 C 0.140625 0 -0.242188 -0.0820312 -0.515625 -0.25 C -0.796875 -0.414062 -0.9375 -0.644531 -0.9375 -0.9375 C -0.9375 -1.082031 -0.898438 -1.238281 -0.828125 -1.40625 C -0.734375 -1.664062 -0.578125 -1.867188 -0.359375 -2.015625 C -0.140625 -2.160156 -0.0078125 -2.242188 0.03125 -2.265625 C 0.414062 -2.503906 0.726562 -2.75 0.96875 -3 C 1.207031 -3.257812 1.410156 -3.675781 1.578125 -4.25 L 6.015625 -19.765625 C 6.109375 -20.078125 6.15625 -20.363281 6.15625 -20.625 C 6.15625 -20.914062 6.113281 -21.15625 6.03125 -21.34375 C 5.945312 -21.539062 5.820312 -21.742188 5.65625 -21.953125 C 5.4375 -22.265625 5.328125 -22.519531 5.328125 -22.71875 C 5.328125 -22.789062 5.351562 -22.921875 5.40625 -23.109375 C 5.5 -23.421875 5.710938 -23.640625 6.046875 -23.765625 C 6.378906 -23.898438 6.875 -23.96875 7.53125 -23.96875 Z M 23.515625 -23.96875 "/></g></g></g><g fill="#0c2f22" fill-opacity="1"><g transform="translate(297.979966, 265.993723)"><g><path d="M 28.84375 -23.96875 C 30.15625 -23.96875 30.8125 -23.429688 30.8125 -22.359375 C 30.8125 -22.023438 30.738281 -21.601562 30.59375 -21.09375 L 29.734375 -18.1875 C 29.472656 -17.289062 29.148438 -16.660156 28.765625 -16.296875 C 28.378906 -15.941406 27.828125 -15.765625 27.109375 -15.765625 C 26.503906 -15.765625 26.039062 -15.921875 25.71875 -16.234375 C 25.394531 -16.546875 25.085938 -17.039062 24.796875 -17.71875 L 24.1875 -19.1875 C 24 -19.644531 23.796875 -19.957031 23.578125 -20.125 C 23.359375 -20.289062 23.023438 -20.375 22.578125 -20.375 L 21.75 -20.375 L 17.171875 -4.28125 C 17.097656 -3.96875 17.0625 -3.691406 17.0625 -3.453125 C 17.0625 -3.171875 17.101562 -2.929688 17.1875 -2.734375 C 17.269531 -2.546875 17.394531 -2.34375 17.5625 -2.125 C 17.78125 -1.789062 17.890625 -1.515625 17.890625 -1.296875 C 17.890625 -1.242188 17.863281 -1.125 17.8125 -0.9375 C 17.695312 -0.625 17.460938 -0.394531 17.109375 -0.25 C 16.765625 -0.101562 16.269531 -0.03125 15.625 -0.03125 L 7.15625 -0.03125 C 6.65625 -0.03125 6.265625 -0.113281 5.984375 -0.28125 C 5.710938 -0.457031 5.578125 -0.703125 5.578125 -1.015625 C 5.578125 -1.148438 5.613281 -1.289062 5.6875 -1.4375 C 5.78125 -1.65625 5.894531 -1.816406 6.03125 -1.921875 C 6.164062 -2.035156 6.363281 -2.175781 6.625 -2.34375 C 6.976562 -2.550781 7.273438 -2.785156 7.515625 -3.046875 C 7.765625 -3.316406 7.972656 -3.726562 8.140625 -4.28125 L 12.671875 -20.375 L 11.84375 -20.375 C 11.3125 -20.375 10.878906 -20.289062 10.546875 -20.125 C 10.210938 -19.957031 9.851562 -19.644531 9.46875 -19.1875 L 8.28125 -17.71875 C 7.726562 -17.0625 7.191406 -16.570312 6.671875 -16.25 C 6.160156 -15.925781 5.601562 -15.765625 5 -15.765625 C 4.445312 -15.765625 4.015625 -15.90625 3.703125 -16.1875 C 3.390625 -16.476562 3.234375 -16.878906 3.234375 -17.390625 C 3.234375 -17.628906 3.269531 -17.894531 3.34375 -18.1875 L 4.28125 -21.453125 C 4.476562 -22.128906 4.695312 -22.640625 4.9375 -22.984375 C 5.175781 -23.335938 5.515625 -23.585938 5.953125 -23.734375 C 6.398438 -23.890625 7.03125 -23.96875 7.84375 -23.96875 Z M 28.84375 -23.96875 "/></g></g></g></svg>